<?xml version="1.0" encoding="UTF-8"?>
<svg version="1.1" xmlns="http://www.w3.org/2000/svg" width="330" height="330">
<path d="M0 0 C0.66 0 1.32 0 2 0 C2 0.99 2 1.98 2 3 C3.32 2.67 4.64 2.34 6 2 C5.4390333 5.5564049 4.5696717 8.09888512 2.65625 11.140625 C2.16060547 11.94653076 1.66496094 12.75243652 1.15429688 13.58276367 C0.60837891 14.46295166 0.06246094 15.34313965 -0.5 16.25 C-14.04375435 38.64414738 -25.43794893 62.36595317 -36.55615234 86.03759766 C-37.56544523 88.10840589 -38.62786738 90.15377945 -39.72900391 92.17724609 C-43.03151806 98.17699395 -43.03151806 98.17699395 -44.109375 104.82421875 C-42.85361414 108.4190553 -41.24741749 111.59094704 -39.25 114.8125 C-38.52162416 116.03928977 -37.79506748 117.2671614 -37.0703125 118.49609375 C-36.71614258 119.09147949 -36.36197266 119.68686523 -35.99707031 120.30029297 C-32.2496712 126.68848901 -29.47979759 132.73553909 -28 140 C-27.43796875 139.83628906 -26.8759375 139.67257813 -26.296875 139.50390625 C-23.86940944 138.97135003 -21.73110319 138.90101319 -19.25 138.9375 C-18.45078125 138.94652344 -17.6515625 138.95554688 -16.828125 138.96484375 C-15.92320312 138.98224609 -15.92320312 138.98224609 -15 139 C-15 139.66 -15 140.32 -15 141 C-13.906875 140.979375 -12.81375 140.95875 -11.6875 140.9375 C-8 141 -8 141 -5 142 C-5.4640625 142.86625 -5.4640625 142.86625 -5.9375 143.75 C-7.08102283 145.90047591 -7.08102283 145.90047591 -7.32421875 148.03125 C-8 150 -8 150 -9.7421875 151.046875 C-10.44601562 151.27890625 -11.14984375 151.5109375 -11.875 151.75 C-12.57367188 151.99234375 -13.27234375 152.2346875 -13.9921875 152.484375 C-16 153 -16 153 -19 153 C-19 153.66 -19 154.32 -19 155 C-20.98 155 -22.96 155 -25 155 C-24.67386719 156.27101562 -24.34773438 157.54203125 -24.01171875 158.8515625 C-22.85425702 164.0678022 -22.73712359 169.05104505 -22.8125 174.375 C-22.81314453 175.26316406 -22.81378906 176.15132812 -22.81445312 177.06640625 C-22.85877172 183.57631515 -22.85877172 183.57631515 -24 187 C-24.15415784 189.14393588 -24.27446602 191.29038132 -24.375 193.4375 C-25.00716764 202.87138625 -26.94534513 211.36193849 -31.02734375 219.8984375 C-32.01154129 222.02493661 -32.79415394 224.16248517 -33.5625 226.375 C-34.90582658 229.76251921 -35.58475818 230.61011505 -38 233 C-38.4125 234.051875 -38.825 235.10375 -39.25 236.1875 C-40.84755738 240.19407248 -43.39995952 242.93083665 -46.2890625 246.08203125 C-48.99498113 249.11537839 -51.25418616 252.35920956 -52.9375 256.0625 C-56.36575903 262.31403116 -63.04589942 266.42753965 -69 270 C-69.78375 270.66 -70.5675 271.32 -71.375 272 C-74.43277948 274.32973675 -77.44222152 275.55276808 -81 277 C-84.90807326 278.85578324 -88.74259972 280.83456123 -92.5078125 282.96484375 C-100.24327 287.2477162 -107.80269511 290.04150823 -116.4375 292 C-117.34838379 292.2074585 -118.25926758 292.41491699 -119.19775391 292.62866211 C-124.90367478 293.82143406 -130.17417125 294.18965058 -136 294 C-136.33 295.32 -136.66 296.64 -137 298 C-137.66 298 -138.32 298 -139 298 C-139.268125 298.845625 -139.53625 299.69125 -139.8125 300.5625 C-141.0616952 304.17859137 -142.31530078 307.5632136 -144 311 C-144.99 311.33 -145.98 311.66 -147 312 C-150.80592207 317.64288446 -152.62561661 323.26109896 -153 330 C-157.75 328.125 -157.75 328.125 -160 327 C-160.1546875 325.576875 -160.1546875 325.576875 -160.3125 324.125 C-160.70606823 320.66722202 -161.81023417 318.00777387 -163.3125 314.875 C-165.79154277 309.68763882 -167.51253249 304.46297258 -169.10546875 298.9453125 C-169.40066406 297.97335937 -169.69585937 297.00140625 -170 296 C-170.26425781 295.07574219 -170.52851563 294.15148437 -170.80078125 293.19921875 C-171.79930001 290.80914437 -171.79930001 290.80914437 -174.1875 290.13671875 C-175.115625 289.98847656 -176.04375 289.84023438 -177 289.6875 C-195.32102468 285.78518788 -210.57541601 275.67085166 -224 263 C-225.45084322 261.69992584 -226.90838535 260.40725596 -228.375 259.125 C-228.96023437 258.61195313 -229.54546875 258.09890625 -230.1484375 257.5703125 C-231.53724518 256.39246295 -232.97149779 255.26785673 -234.42578125 254.171875 C-245.16618119 245.11017186 -252.70916971 230.78212823 -258 218 C-259.12148438 218.2165625 -259.12148438 218.2165625 -260.265625 218.4375 C-261.25046875 218.623125 -262.2353125 218.80875 -263.25 219 C-264.22453125 219.185625 -265.1990625 219.37125 -266.203125 219.5625 C-269 220 -269 220 -273 220 C-273.33 219.34 -273.66 218.68 -274 218 C-275.3921875 218.99 -275.3921875 218.99 -276.8125 220 C-280 222 -280 222 -283 222 C-283.495 221.01 -283.495 221.01 -284 220 C-284.99 220 -285.98 220 -287 220 C-287 220.66 -287 221.32 -287 222 C-290.59462331 224.25998595 -293.56595675 224.20868087 -297.75 224.125 C-298.92046875 224.10695312 -300.0909375 224.08890625 -301.296875 224.0703125 C-302.18890625 224.04710937 -303.0809375 224.02390625 -304 224 C-304 222.68 -304 221.36 -304 220 C-305.65 220 -307.3 220 -309 220 C-308.38062492 218.06069452 -307.75429312 216.12360987 -307.125 214.1875 C-306.60292969 212.56908203 -306.60292969 212.56908203 -306.0703125 210.91796875 C-305 208 -305 208 -303 205 C-303.66 204.34 -304.32 203.68 -305 203 C-304.53860842 201.23942685 -304.02883358 199.49150367 -303.5 197.75 C-303.2215625 196.77546875 -302.943125 195.8009375 -302.65625 194.796875 C-300.2785025 190.78162215 -297.29505104 189.38765696 -293 188 C-288.36113946 187.00473802 -283.7037408 186.35597294 -279 185.75 C-277.74832031 185.57726562 -276.49664062 185.40453125 -275.20703125 185.2265625 C-272.13950156 184.80506987 -269.07082923 184.39660627 -266 184 C-265.970271 182.9330188 -265.970271 182.9330188 -265.93994141 181.84448242 C-265.84475133 178.62511184 -265.73504771 175.4063955 -265.625 172.1875 C-265.5940625 171.06794922 -265.563125 169.94839844 -265.53125 168.79492188 C-265.49257813 167.72177734 -265.45390625 166.64863281 -265.4140625 165.54296875 C-265.3826416 164.55321045 -265.3512207 163.56345215 -265.31884766 162.54370117 C-265 160 -265 160 -263 157 C-262.01 157 -261.02 157 -260 157 C-260.37125 156.071875 -260.7425 155.14375 -261.125 154.1875 C-261.41375 153.135625 -261.7025 152.08375 -262 151 C-261.34 150.01 -260.68 149.02 -260 148 C-259.75394883 145.67369799 -259.59738542 143.33725016 -259.5 141 C-259.22222222 134.33333333 -259.22222222 134.33333333 -257 131 C-256.29187186 128.67891331 -255.61975848 126.34622853 -255 124 C-254.34 124 -253.68 124 -253 124 C-252.95875 123.01 -252.9175 122.02 -252.875 121 C-252.19832107 116.20440588 -249.5715854 112.22028192 -246 109 C-244.68 109 -243.36 109 -242 109 C-241.9175 107.7625 -241.835 106.525 -241.75 105.25 C-241.26469852 101.18916851 -240.04306301 99.75777586 -237 97 C-235.21593058 92.83717136 -236.54513565 89.77021489 -238.11328125 85.76953125 C-239.45166489 81.58929337 -240.19092301 77.30965435 -241 73 C-243.65707601 58.87524177 -246.90897935 45.23513798 -251.46484375 31.59765625 C-251.70082275 30.87868164 -251.93680176 30.15970703 -252.17993164 29.41894531 C-252.62880179 28.05861806 -253.08943352 26.70208988 -253.56420898 25.35058594 C-254.96128747 21.12332902 -254.80148997 18.31571524 -254 14 C-255.31431695 11.98745218 -256.64721885 9.98689731 -258 8 C-257.75 5.125 -257.75 5.125 -257 3 C-251.28726642 5.76261296 -247.16402263 8.18077756 -244.6484375 14.2734375 C-243.82217806 16.85882996 -243.02666445 19.44224865 -242.25390625 22.04296875 C-240.77232549 26.95406819 -238.55085728 31.46309459 -236.33984375 36.08203125 C-234.88630111 39.24761827 -233.79807892 42.40781374 -232.76171875 45.7265625 C-231.53599543 49.38487518 -229.97841014 52.898955 -228.47265625 56.44921875 C-225.51546337 63.57942653 -222.77676279 70.79802159 -220 78 C-219.56067139 77.60312988 -219.12134277 77.20625977 -218.66870117 76.79736328 C-209.25808762 68.48277514 -196.51947303 62.41040206 -183.875 61.5 C-181.956875 61.2525 -181.956875 61.2525 -180 61 C-179.31357115 59.67673221 -178.64685035 58.34305876 -178 57 C-174.14090895 56.08785121 -171.78396692 55.73867769 -168 57 C-167.24074219 56.52691406 -166.48148438 56.05382813 -165.69921875 55.56640625 C-162.42050287 53.66370716 -160.56455474 53.75012577 -156.8125 53.9375 C-151.64774376 54.07187714 -147.17456819 53.59789223 -142.15625 52.44921875 C-138.11734686 51.6077806 -134.88966424 51.70344525 -131 53 C-129.48076796 53.24395663 -127.95638247 53.45664778 -126.4296875 53.6484375 C-125.5325 53.76703125 -124.6353125 53.885625 -123.7109375 54.0078125 C-121.84435251 54.24949155 -119.97716843 54.48659488 -118.109375 54.71875 C-101.97293019 56.87947053 -101.97293019 56.87947053 -97 63 C-96.4225 63.5775 -95.845 64.155 -95.25 64.75 C-94.8375 65.1625 -94.425 65.575 -94 66 C-93.67 65.34 -93.34 64.68 -93 64 C-89 66 -85 68 -81 70 C-81 70.66 -81 71.32 -81 72 C-80.195625 72.268125 -79.39125 72.53625 -78.5625 72.8125 C-77.716875 73.204375 -76.87125 73.59625 -76 74 C-75.67 74.99 -75.34 75.98 -75 77 C-73.16777202 77.59678708 -73.16777202 77.59678708 -71 78 C-62.60962409 81.72269238 -62.60962409 81.72269238 -60.6875 85.75 C-60.3471875 86.86375 -60.3471875 86.86375 -60 88 C-58.01224124 88.97733657 -58.01224124 88.97733657 -56 89 C-55.67 88.67 -55.34 88.34 -55 88 C-54.484375 87.566875 -53.96875 87.13375 -53.4375 86.6875 C-51.56768903 84.86196593 -51.56768903 84.86196593 -52 81 C-51.01 81 -50.02 81 -49 81 C-48.87044922 80.11248047 -48.87044922 80.11248047 -48.73828125 79.20703125 C-47.7236039 73.50063476 -46.38547952 70.9678148 -42 67 C-40.51190576 64.72718725 -39.27329454 62.4051119 -38 60 C-37.01 60 -36.02 60 -35 60 C-34.62875 58.948125 -34.62875 58.948125 -34.25 57.875 C-32.82819762 54.60485452 -31.12753712 51.858878 -29 49 C-28.34 49 -27.68 49 -27 49 C-26.86464844 48.45472656 -26.72929687 47.90945312 -26.58984375 47.34765625 C-25.3089052 42.86053619 -23.83067002 39.51202259 -20.796875 35.94140625 C-16.54580543 30.63210691 -13.45928501 24.8848741 -10.3125 18.875 C-9.20505332 16.78872995 -8.09699593 14.70278396 -6.98828125 12.6171875 C-6.47604004 11.6487793 -5.96379883 10.68037109 -5.43603516 9.68261719 C-3.68725827 6.41577591 -1.86414256 3.20215242 0 0 Z M-168 87 C-169.63686262 87.32062257 -171.28307288 87.60039396 -172.9375 87.8125 C-177.75580076 88.69056706 -180.90795105 90.63339494 -184.83984375 93.4765625 C-188.99372433 96.40606237 -193.4005889 98.50787351 -198.25 100 C-201.39784883 101.1446723 -202.93613338 102.38047698 -205 105 C-205 105.99 -205 106.98 -205 108 C-206.32 108 -207.64 108 -209 108 C-210.30092709 111.90278127 -209.36437068 113.15452503 -207.75 116.875 C-207.31171875 117.90367188 -206.8734375 118.93234375 -206.421875 119.9921875 C-205.0814423 122.97612222 -205.0814423 122.97612222 -203.43359375 125.51953125 C-201.85318385 128.25402794 -201.08565997 130.75667728 -200.3125 133.8125 C-200.06113281 134.78832031 -199.80976563 135.76414063 -199.55078125 136.76953125 C-199.36902344 137.50558594 -199.18726563 138.24164063 -199 139 C-198.34 139 -197.68 139 -197 139 C-196.90203125 139.556875 -196.8040625 140.11375 -196.703125 140.6875 C-195.73456734 145.63048391 -194.3254135 149.66908674 -191.9375 154.09375 C-191 156 -191 156 -190 159.625 C-188.86471212 163.45659659 -187.34198726 165.79928408 -185 169 C-178.22783822 168.66694286 -172.12433281 167.31037774 -165.625 165.5 C-159.19463645 163.71138047 -153.15702327 162.42417411 -146.4453125 162.23828125 C-143.67038123 161.9678806 -141.57484864 161.03897401 -139 160 C-136.76171875 159.8046875 -136.76171875 159.8046875 -134.6875 159.875 C-133.470625 159.91625 -132.25375 159.9575 -131 160 C-131 159.01 -131 158.02 -131 157 C-130.16082031 156.92652344 -130.16082031 156.92652344 -129.3046875 156.8515625 C-124.06360899 156.36284457 -118.84303401 155.75569071 -113.625 155.0625 C-112.46226562 154.90910156 -111.29953125 154.75570312 -110.1015625 154.59765625 C-107.29565852 154.05697198 -105.49841519 153.28325309 -103 152 C-100.81640625 151.7265625 -100.81640625 151.7265625 -98.5625 151.625 C-94.1807953 151.18110181 -92.07558406 150.32495574 -89 147 C-80.7511321 136.33861639 -80.7511321 136.33861639 -77 124 C-76.34 124 -75.68 124 -75 124 C-73.68 120.37 -72.36 116.74 -71 113 C-73.34751083 110.65248917 -74.01182461 110.78185034 -77.1875 110.4375 C-81.52708958 109.59311415 -83.00860165 108.16831776 -85.5 104.5625 C-88.43255478 100.38261422 -90.25457925 99.09146982 -95.12890625 97.875 C-99.21623164 96.62933893 -102.96523019 94.78225408 -106.8125 92.9375 C-107.55419434 92.58421631 -108.29588867 92.23093262 -109.06005859 91.86694336 C-111.74664141 90.58169729 -114.42775334 89.29203247 -117.08056641 87.93823242 C-126.24789431 83.45717911 -136.91999762 83.68520766 -146.875 83.625 C-148.03974854 83.61130371 -149.20449707 83.59760742 -150.40454102 83.58349609 C-157.05353797 83.61882501 -161.9213653 84.33847014 -168 87 Z M-224 129 C-227.84894116 134.25115764 -230.49403267 140.02672442 -233 146 C-233.53625 147.19625 -234.0725 148.3925 -234.625 149.625 C-238.7417054 159.72964054 -239.14577281 169.22900918 -239 180 C-237.09363304 181.23482822 -237.09363304 181.23482822 -235.29296875 180.51171875 C-234.59816406 180.23972656 -233.90335937 179.96773437 -233.1875 179.6875 C-228.23093451 177.92302685 -223.31877176 177.19471433 -218.11328125 176.52734375 C-214.92174674 175.98674506 -212.04017849 175.09847529 -209 174 C-209.28609307 172.60301364 -209.57916905 171.2074567 -209.875 169.8125 C-210.03742188 169.03519531 -210.19984375 168.25789063 -210.3671875 167.45703125 C-210.94088442 164.99981318 -210.94088442 164.99981318 -211.91796875 162.75390625 C-213.70135516 158.2149625 -214.81808108 153.48152749 -216.05664062 148.76953125 C-217.35444381 143.95836058 -218.95643143 139.54439971 -221 135 C-221.68836513 133.00736409 -222.36281399 131.00958663 -223 129 C-223.33 129 -223.66 129 -224 129 Z M-61 135 C-61.89833886 136.24000216 -62.74405274 137.51837399 -63.5625 138.8125 C-64.01753906 139.52019531 -64.47257813 140.22789062 -64.94140625 140.95703125 C-66.23003469 143.06045086 -66.23003469 143.06045086 -66 146 C-66.66 146 -67.32 146 -68 146 C-68 146.66 -68 147.32 -68 148 C-64.04 147.34 -60.08 146.68 -56 146 C-57.32 142.37 -58.64 138.74 -60 135 C-60.33 135 -60.66 135 -61 135 Z M-68.4375 168.3125 C-69.7069043 168.63250977 -69.7069043 168.63250977 -71.00195312 168.95898438 C-77.40925362 170.5962575 -77.40925362 170.5962575 -83 174 C-84.08861241 176.36666932 -84.08861241 176.36666932 -84.5625 179 C-85.47167348 183.2135488 -86.42760659 184.61148115 -90 187 C-92.93691137 191.4597543 -93.37431966 195.40467952 -93.75 200.5859375 C-94.0596588 203.57608026 -94.89905303 206.21093434 -96 209 C-97.32 209 -98.64 209 -100 209 C-100 209.66 -100 210.32 -100 211 C-100.66 211 -101.32 211 -102 211 C-102.33 214.63 -102.66 218.26 -103 222 C-103.66 222 -104.32 222 -105 222 C-105.61875 223.670625 -105.61875 223.670625 -106.25 225.375 C-106.953125 227.2734375 -106.953125 227.2734375 -108 229 C-108.6703125 229.28875 -109.340625 229.5775 -110.03125 229.875 C-112.28044676 230.86564472 -112.28044676 230.86564472 -112.828125 233.6015625 C-113.03695312 235.09816406 -113.03695312 235.09816406 -113.25 236.625 C-113.39953125 237.62789063 -113.5490625 238.63078125 -113.703125 239.6640625 C-113.80109375 240.43492187 -113.8990625 241.20578125 -114 242 C-115.485 242.495 -115.485 242.495 -117 243 C-117.73323796 245.01508358 -117.73323796 245.01508358 -118 247 C-118.66 247 -119.32 247 -120 247 C-120.08636719 247.556875 -120.17273438 248.11375 -120.26171875 248.6875 C-121.25561521 254.08554316 -122.87320852 257.90771329 -126.07421875 262.37109375 C-126.37972656 262.90863281 -126.68523437 263.44617188 -127 264 C-126.67 264.66 -126.34 265.32 -126 266 C-119.53287812 264.83805848 -113.90377651 262.8751252 -108 260 C-108 259.34 -108 258.68 -108 258 C-106.948125 257.87625 -105.89625 257.7525 -104.8125 257.625 C-101.54041229 257.08859218 -98.99463924 256.36119965 -96 255 C-96 254.01 -96 253.02 -96 252 C-95.34 252 -94.68 252 -94 252 C-94 251.34 -94 250.68 -94 250 C-93.0925 249.71125 -92.185 249.4225 -91.25 249.125 C-88.67797092 248.23468224 -86.38653234 247.28505587 -84 246 C-84 245.34 -84 244.68 -84 244 C-83.34 244 -82.68 244 -82 244 C-80.28848303 242.12014463 -80.28848303 242.12014463 -78.5625 239.75 C-77.96566406 238.96109375 -77.36882812 238.1721875 -76.75390625 237.359375 C-75.88572266 236.19148438 -75.88572266 236.19148438 -75 235 C-74.45214844 234.30519531 -73.90429688 233.61039062 -73.33984375 232.89453125 C-71.810011 230.92925098 -71.810011 230.92925098 -71 227.9375 C-69.9735686 224.92235776 -69.15987163 224.15987163 -67 222 C-65.52688537 218.35597961 -65 215.97223225 -65 212 C-64.01 211.67 -63.02 211.34 -62 211 C-60.98765481 208.68518631 -60.21228525 206.5344517 -59.5 204.125 C-59.28714355 203.41972168 -59.07428711 202.71444336 -58.85498047 201.98779297 C-55.50889734 190.36148593 -52.82880686 178.04025285 -55 166 C-59.79683443 166 -63.82688413 167.09255691 -68.4375 168.3125 Z M-114.875 178.9375 C-119.24603589 180.25447518 -123.47987933 181.34340755 -128 182 C-128 182.66 -128 183.32 -128 184 C-128.89682495 184.06695068 -128.89682495 184.06695068 -129.81176758 184.13525391 C-136.26637685 184.68923858 -142.39990421 185.83854023 -148.6875 187.375 C-149.58533203 187.58382812 -150.48316406 187.79265625 -151.40820312 188.0078125 C-156.55870124 189.24544135 -161.17510117 190.82819392 -166 193 C-168.65339965 193.7964458 -171.29554658 194.38319483 -174 195 C-173.06360942 197.3546132 -172.12591643 199.70869425 -171.1875 202.0625 C-170.92646484 202.71927734 -170.66542969 203.37605469 -170.39648438 204.05273438 C-167.24437419 212.30352673 -167.24437419 212.30352673 -163 220 C-162.7525 221.2375 -162.505 222.475 -162.25 223.75 C-160.22464055 233.57138589 -155.67800247 243.18376458 -151 252 C-150.01 252 -149.02 252 -148 252 C-147.34 250.02 -146.68 248.04 -146 246 C-145.34 246 -144.68 246 -144 246 C-143.63648438 245.23816406 -143.27296875 244.47632813 -142.8984375 243.69140625 C-140.00329945 237.7452381 -136.99091545 232.19518359 -133.1015625 226.83984375 C-131.74315406 224.92841316 -131.74315406 224.92841316 -132 222 C-131.38125 221.79375 -130.7625 221.5875 -130.125 221.375 C-127.13379384 219.43951366 -127.03402487 217.36058082 -126 214 C-124.66666667 212 -123.33333333 210 -122 208 C-121.31154626 206.44697645 -120.6457867 204.8837448 -120 203.3125 C-118.4643078 199.7012238 -117.18644648 198.29025841 -114 196 C-112.94282578 194.10774699 -112.05618295 192.16330464 -111.1484375 190.1953125 C-109.52093474 187.0842358 -107.39140153 184.47020039 -105.171875 181.76171875 C-103.72307608 179.93633755 -103.72307608 179.93633755 -104 177 C-108.10645036 177 -110.96319003 177.75554451 -114.875 178.9375 Z M-214.4375 206.4375 C-219.63723702 208.08754988 -224.57176124 209.37779081 -230 210 C-224.98915493 220.28161869 -220.27798872 229.68038861 -212.5625 238.25 C-212.1077832 238.75805176 -211.65306641 239.26610352 -211.18457031 239.78955078 C-208.08257139 243.13621129 -204.82787556 245.54713764 -201 248 C-198.45591818 250.06204526 -195.95812852 252.1699348 -193.46484375 254.29296875 C-190.88827397 256.07737603 -189.08248972 256.63185952 -186 257 C-186 257.66 -186 258.32 -186 259 C-183.69 259.66 -181.38 260.32 -179 261 C-179.96776098 257.20452079 -179.96776098 257.20452079 -182 254 C-182.45459858 251.34536879 -182.70243238 248.67810862 -183 246 C-182.34 246 -181.68 246 -181 246 C-181 245.34 -181 244.68 -181 244 C-181.680625 243.38125 -182.36125 242.7625 -183.0625 242.125 C-184.0215625 241.073125 -184.0215625 241.073125 -185 240 C-184.75 237.75 -184.75 237.75 -184 236 C-184.99 235.67 -185.98 235.34 -187 235 C-187 234.34 -187 233.68 -187 233 C-187.66 233 -188.32 233 -189 233 C-189 232.34 -189 231.68 -189 231 C-188.01 230.67 -187.02 230.34 -186 230 C-186 229.67 -186 229.34 -186 229 C-187.65 229 -189.3 229 -191 229 C-191.18175781 228.19175781 -191.36351562 227.38351563 -191.55078125 226.55078125 C-191.80214844 225.48214844 -192.05351562 224.41351563 -192.3125 223.3125 C-192.55613281 222.25675781 -192.79976562 221.20101562 -193.05078125 220.11328125 C-193.99566755 217.01420972 -195.30210769 214.73703951 -197 212 C-197.35236497 210.00326516 -197.68834559 208.00349261 -198 206 C-199.83913617 203.74216934 -199.83913617 203.74216934 -202.59765625 203.72265625 C-206.78684556 204.06414011 -210.4507175 205.15792259 -214.4375 206.4375 Z " fill="#000000" transform="translate(316,0)"/>
</svg>
