<?xml version="1.0" encoding="UTF-8"?>
<svg version="1.1" xmlns="http://www.w3.org/2000/svg" width="330" height="330">
<path d="M0 0 C1.20849609 -0.02900391 2.41699219 -0.05800781 3.66210938 -0.08789062 C23.61149973 -0.22679907 38.8880896 8.95269703 53 22.3125 C66.80327105 36.46326599 75.08903477 54.1822542 79.5625 73.3125 C79.78808594 74.27542969 80.01367188 75.23835938 80.24609375 76.23046875 C85.89792243 105.73691229 79.72926838 137.10033726 63.5625 162.3125 C57.1190875 171.40964388 48.27475906 182.62188071 37.5625 186.3125 C38.01302734 187.02212891 38.01302734 187.02212891 38.47265625 187.74609375 C41.15567278 192.41181401 42.14795064 195.84782225 41.2421875 201.19921875 C39.91103433 205.33803405 37.41850774 208.16944722 33.69140625 210.46484375 C31.24059209 211.44067251 29.43930384 211.51475894 26.8125 211.4375 C26.01328125 211.41945312 25.2140625 211.40140625 24.390625 211.3828125 C23.78734375 211.35960937 23.1840625 211.33640625 22.5625 211.3125 C22.2325 212.3025 21.9025 213.2925 21.5625 214.3125 C22.2225 214.6425 22.8825 214.9725 23.5625 215.3125 C23.3249227 219.11373676 22.06137784 221.06042701 19.6875 223.875 C12.83166923 232.72234268 13.00304374 244.3414304 13.0065918 255.08496094 C13.00000451 257.31097679 12.94525815 259.53257561 12.88867188 261.7578125 C12.77776496 271.41677236 14.50827795 277.87785094 19.5625 286.3125 C20.59974907 289.42424722 20.79619943 291.79434989 20.875 295.0625 C20.91238281 296.06796875 20.94976562 297.0734375 20.98828125 298.109375 C19.98946326 305.62341861 14.08601065 311.81685241 9.62890625 317.70703125 C6.59639675 321.76437775 3.9921768 325.86573302 1.5625 330.3125 C-2.08733463 329.09588846 -2.22577666 328.34613722 -4 325.0625 C-6.54499779 320.59916217 -9.4256931 316.68285948 -12.625 312.6875 C-17.41182006 306.58628791 -20.75777236 301.7197031 -20.5625 293.6875 C-19.92208311 289.14438712 -18.21869982 286.04521361 -15.90625 282.11328125 C-11.73506819 274.34078368 -11.4895938 267.15726068 -11.74462891 258.47973633 C-11.81275312 256.11621817 -11.82665369 253.75699458 -11.83203125 251.39257812 C-11.93865312 235.75229006 -11.93865312 235.75229006 -19.125 222.3125 C-22.4375 218.58165114 -22.4375 218.58165114 -22.4375 215.3125 C-21.4475 214.6525 -20.4575 213.9925 -19.4375 213.3125 C-19.7675 212.3225 -20.0975 211.3325 -20.4375 210.3125 C-21.63375 210.539375 -22.83 210.76625 -24.0625 211 C-28.37185712 211.52534566 -30.78467586 210.80306191 -34.4375 208.3125 C-38.3800836 203.94369115 -39.53395049 201.46265751 -39.765625 195.578125 C-39.31382665 192.458565 -37.9303679 190.06251982 -36.4375 187.3125 C-37.12714844 186.83941406 -37.81679687 186.36632812 -38.52734375 185.87890625 C-61.31394244 169.84389236 -74.85155567 145.71819515 -79.61279297 118.35229492 C-84.05782987 88.03200136 -77.98857149 57.68259292 -60.46875 32.48046875 C-58.5516589 29.98589324 -56.55156172 27.64220372 -54.4375 25.3125 C-53.61636719 24.39855469 -52.79523438 23.48460938 -51.94921875 22.54296875 C-37.56317881 7.32416239 -20.61676554 0.16031699 0 0 Z M-17.4375 15.3125 C-11.99642159 27.21822603 4.38589696 47.86507232 16.5625 53.3125 C16.08438823 51.54138156 15.6049722 49.77061517 15.125 48 C14.85816406 47.01386719 14.59132812 46.02773438 14.31640625 45.01171875 C13.78170575 43.09732474 13.19105462 41.19816385 12.5625 39.3125 C12.34573842 37.32281749 12.17340121 35.32814981 12.02734375 33.33203125 C11.94033203 32.16865234 11.85332031 31.00527344 11.76367188 29.80664062 C11.67666016 28.59169922 11.58964844 27.37675781 11.5 26.125 C11.40912109 24.89845703 11.31824219 23.67191406 11.22460938 22.40820312 C11.00047842 19.37653705 10.7799188 16.34465363 10.5625 13.3125 C0.46587725 11.59750902 -7.49884144 12.73182823 -17.4375 15.3125 Z M16.5625 15.3125 C15.77658491 29.75520124 16.822132 41.03427502 22.5625 54.3125 C22.82546875 55.22515625 23.0884375 56.1378125 23.359375 57.078125 C25.04055411 62.56997677 28.31155811 64.81585203 33.1875 67.5625 C35.04443958 68.5473213 36.91273922 69.49947491 38.796875 70.43115234 C40.40547829 71.23411942 41.98595982 72.09280806 43.5625 72.95703125 C47.77542703 75.53649634 47.77542703 75.53649634 52.4765625 76.0625 C53.16492188 75.815 53.85328125 75.5675 54.5625 75.3125 C55.94695312 74.83103516 55.94695312 74.83103516 57.359375 74.33984375 C58.33390625 73.98019531 59.3084375 73.62054688 60.3125 73.25 C61.29734375 72.88777344 62.2821875 72.52554688 63.296875 72.15234375 C64.04453125 71.87519531 64.7921875 71.59804687 65.5625 71.3125 C59.7914659 51.50231565 49.35473526 31.91665881 30.79101562 21.29931641 C23.98526025 17.14810789 23.98526025 17.14810789 16.5625 15.3125 Z M-42.0625 30.8515625 C-58.55155345 47.93725933 -66.81897547 71.87295184 -66.4375 95.3125 C-61.74276297 94.88098704 -57.05215351 94.41958514 -52.36279297 93.93310547 C-50.77534386 93.77234708 -49.18711651 93.6190555 -47.59814453 93.47412109 C-36.01474423 92.41041429 -26.09785901 89.95129104 -15.4375 85.3125 C-13.66246094 84.55501465 -13.66246094 84.55501465 -11.8515625 83.78222656 C-8.44863075 82.30256577 -5.065909 80.78474031 -1.6875 79.25 C6.67878817 75.47308031 15.06845871 71.79405808 23.5625 68.3125 C22.35235452 64.68206355 21.11959067 63.97707437 18.09765625 61.70703125 C12.67631378 57.48507524 7.82626523 52.8826145 3 48 C1.75621582 46.74823975 1.75621582 46.74823975 0.48730469 45.47119141 C-5.21232847 39.68274739 -10.54402062 33.80515564 -15.4375 27.3125 C-16.74692707 25.58100517 -18.05927897 23.85171705 -19.375 22.125 C-19.92027344 21.38894531 -20.46554688 20.65289063 -21.02734375 19.89453125 C-21.49269531 19.37246094 -21.95804688 18.85039062 -22.4375 18.3125 C-29.44890793 18.3125 -37.26517237 26.3390762 -42.0625 30.8515625 Z M61.375 77.5 C60.23998047 77.83064453 60.23998047 77.83064453 59.08203125 78.16796875 C51.95462643 81.40568908 48.62190756 86.83780336 44.8125 93.375 C44.33167969 94.17744141 43.85085937 94.97988281 43.35546875 95.80664062 C38.67732802 103.65783781 37.21447415 108.10563426 37.5625 117.3125 C37.58715332 117.99199707 37.61180664 118.67149414 37.63720703 119.37158203 C37.72406906 121.60269527 37.82772773 123.83240234 37.9375 126.0625 C37.9681958 126.77108154 37.9988916 127.47966309 38.03051758 128.2097168 C38.51789826 136.836254 40.6325267 142.13180772 46.6875 148.25 C47.53248047 149.13268555 47.53248047 149.13268555 48.39453125 150.03320312 C49.77302286 151.4701054 51.16629091 152.89280727 52.5625 154.3125 C56.13721947 151.16110258 58.1226717 147.71984541 60.0625 143.4375 C60.36438232 142.77403564 60.66626465 142.11057129 60.97729492 141.42700195 C69.85700498 121.35289768 72.45463155 97.61110666 66.5625 76.3125 C64.75668161 76.3125 63.09183629 76.97948514 61.375 77.5 Z M6.625 82.4375 C5.15087646 83.00476807 5.15087646 83.00476807 3.64697266 83.58349609 C-4.22659767 86.81433326 -10.21233563 90.7991511 -14.9375 98 C-15.4428125 98.74636719 -15.948125 99.49273437 -16.46875 100.26171875 C-17.78215217 102.43043697 -17.78215217 102.43043697 -16.4375 105.3125 C-4.74246946 109.85952787 5.12856519 108.82145955 16.5625 104.3125 C25.85545595 99.6376032 33.08332675 91.64411094 37.5625 82.3125 C37.5625 81.3225 37.5625 80.3325 37.5625 79.3125 C26.02158451 76.81830947 17.50622001 78.20888572 6.625 82.4375 Z M-53 98.25 C-54.27520508 98.38051758 -54.27520508 98.38051758 -55.57617188 98.51367188 C-56.80883789 98.64418945 -56.80883789 98.64418945 -58.06640625 98.77734375 C-59.1812439 98.89517212 -59.1812439 98.89517212 -60.31860352 99.01538086 C-62.41147445 99.30885061 -64.39868348 99.76164769 -66.4375 100.3125 C-66.69600895 107.73745142 -66.58245732 115.13616132 -64.4375 122.3125 C-63.7775 122.6425 -63.1175 122.9725 -62.4375 123.3125 C-62.03587646 122.83868896 -61.63425293 122.36487793 -61.22045898 121.87670898 C-56.55450573 116.44972243 -51.60248678 111.39004057 -46.5 106.375 C-44.96781272 104.86815907 -43.43773481 103.35916913 -41.91015625 101.84765625 C-41.24250244 101.191604 -40.57484863 100.53555176 -39.88696289 99.85961914 C-38.32355004 98.54421083 -38.32355004 98.54421083 -38.4375 97.3125 C-43.33570847 97.16163116 -48.13832085 97.72791564 -53 98.25 Z M-41.84765625 108.38671875 C-42.37515976 108.90756546 -42.90266327 109.42841217 -43.44615173 109.96504211 C-44.56253121 111.07128066 -45.67619331 112.18026712 -46.78735352 113.29174805 C-48.48624268 114.98627798 -50.20042827 116.66419665 -51.91601562 118.34179688 C-52.99837583 119.41828639 -54.07978763 120.49573049 -55.16015625 121.57421875 C-55.67369156 122.07338303 -56.18722687 122.5725473 -56.71632385 123.08683777 C-59.61581011 126.02396649 -61.25966975 128.12635004 -61.4375 132.3125 C-60.59816476 134.96550371 -59.71427823 137.30265491 -58.5625 139.8125 C-58.24514893 140.5152002 -57.92779785 141.21790039 -57.60083008 141.94189453 C-51.657373 154.63830152 -42.8988533 167.37479622 -30.4375 174.3125 C-30.15664551 173.71002441 -29.87579102 173.10754883 -29.58642578 172.48681641 C-22.51738733 157.37656749 -15.09794596 142.58002956 -6.4375 128.3125 C-13.35930383 121.88661809 -20.28228243 115.47916778 -27.4375 109.3125 C-28.41203125 108.44431641 -28.41203125 108.44431641 -29.40625 107.55859375 C-30.0353125 107.00300781 -30.664375 106.44742188 -31.3125 105.875 C-31.86679688 105.38128906 -32.42109375 104.88757813 -32.9921875 104.37890625 C-36.78314657 101.58179321 -39.22398709 105.7744655 -41.84765625 108.38671875 Z M3.13671875 122.13671875 C0.59915264 125.38031799 -1.46040338 128.717454 -3.4375 132.3125 C-4.34513195 133.82600399 -5.25821318 135.33624911 -6.17578125 136.84375 C-9.03921021 141.60772781 -11.75069166 146.44733694 -14.4375 151.3125 C-14.83275879 152.01793945 -15.22801758 152.72337891 -15.63525391 153.45019531 C-19.95762236 161.17203307 -23.76010951 168.83996825 -26.4375 177.3125 C-24.77512104 178.11313104 -23.10731875 178.90250368 -21.4375 179.6875 C-20.0453125 180.34878906 -20.0453125 180.34878906 -18.625 181.0234375 C-11.79726239 183.78465491 -5.54821783 184.70168434 1.75 184.6875 C2.9875 184.68617065 2.9875 184.68617065 4.25 184.68481445 C11.53520127 184.54531361 20.33430936 183.86667891 26.13232422 178.99291992 C27.75776928 177.08306359 28.27397734 175.67120323 28.9140625 173.2578125 C29.12546875 172.47792969 29.336875 171.69804687 29.5546875 170.89453125 C29.76351562 170.08371094 29.97234375 169.27289063 30.1875 168.4375 C30.4040625 167.63441406 30.620625 166.83132812 30.84375 166.00390625 C35.82503359 147.33946713 34.2046725 129.38340908 32.5625 110.3125 C23.71367642 110.3125 9.50309531 116.04922236 3.13671875 122.13671875 Z M38.5625 147.3125 C38.08268352 150.3332314 37.60362768 153.35408021 37.125 156.375 C36.92293945 157.64633789 36.92293945 157.64633789 36.71679688 158.94335938 C35.95935603 163.72816861 35.23301707 168.51472252 34.5625 173.3125 C37.68520026 171.90134686 40.05903681 170.201876 42.625 167.9375 C43.29660156 167.35226563 43.96820313 166.76703125 44.66015625 166.1640625 C46.53791411 164.3364296 48.05199607 162.44885135 49.5625 160.3125 C48.13201306 157.12966656 46.37232757 154.73334342 44.0625 152.125 C43.4540625 151.43019531 42.845625 150.73539063 42.21875 150.01953125 C40.65754668 148.22230918 40.65754668 148.22230918 38.5625 147.3125 Z " fill="#000000" transform="translate(164.4375,-0.3125)"/>
</svg>
