<?xml version="1.0" encoding="UTF-8"?>
<svg version="1.1" xmlns="http://www.w3.org/2000/svg" width="330" height="330">
<path d="M0 0 C1.31145996 0.00563965 2.62291992 0.0112793 3.97412109 0.01708984 C14.34143902 0.14596358 24.22449563 0.90062996 34.3125 3.3125 C35.10205078 3.50054199 35.89160156 3.68858398 36.70507812 3.88232422 C62.04058637 10.1861116 84.08922935 22.85562211 103.3125 40.3125 C104.16199219 41.07820313 105.01148438 41.84390625 105.88671875 42.6328125 C132.58778121 68.00097168 149.60938854 105.52643534 150.61328125 142.35546875 C150.63252883 144.73690459 150.63611189 147.1185123 150.625 149.5 C150.62008545 150.76231445 150.6151709 152.02462891 150.61010742 153.32519531 C150.10916929 193.5954836 133.02845733 230.48161106 104.76074219 258.90771484 C76.30800108 286.50668186 37.8439813 300.76251631 -1.48071289 300.61499023 C-40.40904592 299.85899786 -75.44677878 285.0482298 -103.6875 258.3125 C-104.57179687 257.49265625 -105.45609375 256.6728125 -106.3671875 255.828125 C-124.54541963 238.422339 -136.60733899 216.10061153 -143.9375 192.1875 C-144.30717896 190.98915527 -144.30717896 190.98915527 -144.68432617 189.76660156 C-148.50028862 176.80314532 -149.09180343 164.22804237 -149.0625 150.8125 C-149.06228851 149.92265411 -149.06207703 149.03280823 -149.06185913 148.11599731 C-149.03096923 135.11808352 -148.47220201 122.83137254 -144.6875 110.3125 C-144.34847656 109.06726563 -144.00945312 107.82203125 -143.66015625 106.5390625 C-137.47808035 85.90280913 -126.68707093 67.55017526 -112.6875 51.3125 C-111.86636719 50.34441406 -111.04523438 49.37632813 -110.19921875 48.37890625 C-82.63139571 16.97200859 -41.48264351 -0.18877812 0 0 Z M-44.6875 27.3125 C-45.7084375 27.68117188 -46.729375 28.04984375 -47.78125 28.4296875 C-62.76942435 34.27185223 -79.88049109 43.23648812 -89.6875 56.3125 C-29.9575 56.3125 29.7725 56.3125 91.3125 56.3125 C82.82227242 47.82227242 73.71764685 41.28859753 63.3125 35.3125 C62.40242187 34.78785156 61.49234375 34.26320313 60.5546875 33.72265625 C28.13610329 16.31267584 -10.42520036 14.87379556 -44.6875 27.3125 Z M94.3125 59.3125 C94.3125 119.0425 94.3125 178.7725 94.3125 240.3125 C116.34111173 221.95532356 128.42270584 190.79872267 131.11767578 162.79638672 C133.90615972 127.24496363 123.56706145 94.30922804 101.26953125 66.56640625 C99.07299409 64.03666186 96.68150635 61.68150635 94.3125 59.3125 Z M-96.40234375 61.97265625 C-118.71276659 86.08673366 -130.15935273 117.11080487 -130.0625 149.8125 C-130.0612915 150.56639008 -130.06008301 151.32028015 -130.05883789 152.09701538 C-130.00754708 163.89343331 -129.37826018 175.03463335 -125.6875 186.3125 C-125.26887695 187.59253906 -125.26887695 187.59253906 -124.84179688 188.8984375 C-118.26280323 208.39796006 -108.59233919 225.01717689 -94.6875 240.3125 C-94.3575 240.3125 -94.0275 240.3125 -93.6875 240.3125 C-93.6875 180.9125 -93.6875 121.5125 -93.6875 60.3125 C-94.96555474 60.19657371 -94.96555474 60.19657371 -96.40234375 61.97265625 Z M-86.6875 63.3125 C-86.6875 85.0925 -86.6875 106.8725 -86.6875 129.3125 C-85.01308443 125.96366887 -83.71562961 122.75633556 -82.4375 119.25 C-78.35211428 108.60179349 -73.05740464 99.98882319 -65.6875 91.3125 C-64.50800781 89.83330078 -64.50800781 89.83330078 -63.3046875 88.32421875 C-52.92821431 76.38353095 -37.02152635 67.85112147 -21.6875 64.3125 C-21.6875 63.9825 -21.6875 63.6525 -21.6875 63.3125 C-43.1375 63.3125 -64.5875 63.3125 -86.6875 63.3125 Z M23.3125 63.3125 C26.30165308 65.30526872 28.87791734 66.30239973 32.25 67.5 C53.08347699 75.41672125 70.94056619 90.76678683 80.20410156 111.28759766 C81.57829896 114.53098237 82.84703222 117.79967655 84.0859375 121.09765625 C85.32172681 124.49595534 85.32172681 124.49595534 87.3125 128.3125 C87.3125 106.8625 87.3125 85.4125 87.3125 63.3125 C66.1925 63.3125 45.0725 63.3125 23.3125 63.3125 Z M-61.6875 93.3125 C-77.16533454 111.04589837 -84.76621672 132.74149663 -83.46875 156.28125 C-81.84060822 174.468785 -74.90471953 191.67212766 -62.6875 205.3125 C-61.94757813 206.14652344 -61.20765625 206.98054687 -60.4453125 207.83984375 C-44.80212135 224.48317335 -23.06463664 233.41485792 -0.390625 234.33984375 C22.59885842 234.17009018 44.33533164 225.29525857 60.66796875 209.11328125 C76.90123572 191.92088477 84.9956298 169.51164591 84.58984375 145.99609375 C84.05602295 133.30921837 80.31152167 121.44922285 74.3125 110.3125 C73.87292969 109.45527344 73.43335938 108.59804687 72.98046875 107.71484375 C62.57043695 88.78478592 43.78061877 75.37261394 23.3125 69.375 C-7.24708276 60.58943056 -39.90938117 70.38816439 -61.6875 93.3125 Z M-86.6875 170.3125 C-86.6875 192.4225 -86.6875 214.5325 -86.6875 237.3125 C-64.9075 237.3125 -43.1275 237.3125 -20.6875 237.3125 C-23.69704792 235.80772604 -26.62582538 234.54684869 -29.76245117 233.3605957 C-52.51011418 224.66830545 -69.62428574 209.19419638 -80.234375 187.08984375 C-82.60120761 181.58347731 -84.44737706 176.17489933 -85.6875 170.3125 C-86.0175 170.3125 -86.3475 170.3125 -86.6875 170.3125 Z M86.3125 172.3125 C86.10496094 173.01632813 85.89742188 173.72015625 85.68359375 174.4453125 C81.68641848 187.25634286 76.11212846 198.17024782 67.3125 208.3125 C66.61511719 209.20839844 65.91773438 210.10429687 65.19921875 211.02734375 C63.3125 213.3125 63.3125 213.3125 61.3125 214.3125 C61.3125 214.9725 61.3125 215.6325 61.3125 216.3125 C60.755625 216.56515625 60.19875 216.8178125 59.625 217.078125 C56.95652769 218.50251225 54.71163673 220.22030572 52.3125 222.0625 C42.71175966 229.09115871 32.74491194 233.1778064 21.3125 236.3125 C21.3125 236.6425 21.3125 236.9725 21.3125 237.3125 C43.0925 237.3125 64.8725 237.3125 87.3125 237.3125 C87.3125 215.8625 87.3125 194.4125 87.3125 172.3125 C86.9825 172.3125 86.6525 172.3125 86.3125 172.3125 Z M-89.6875 244.3125 C-80.99355112 253.00644888 -72.36834616 259.31893165 -61.6875 265.3125 C-60.20056641 266.15167969 -60.20056641 266.15167969 -58.68359375 267.0078125 C-52.95224105 270.05284273 -47.06210179 272.39120835 -40.9375 274.5 C-40.25969482 274.73807373 -39.58188965 274.97614746 -38.88354492 275.22143555 C-25.93238703 279.48076159 -12.92747235 280.87499065 0.625 280.75 C1.70059174 280.74493942 1.70059174 280.74493942 2.7979126 280.73977661 C14.35414713 280.66134063 25.24409394 279.80791819 36.3125 276.3125 C37.08126465 276.07644043 37.8500293 275.84038086 38.64208984 275.59716797 C54.9937422 270.4392642 70.42707819 262.73089086 83.3125 251.3125 C84.37791016 250.42498047 84.37791016 250.42498047 85.46484375 249.51953125 C87.10822113 248.14950773 88.71530111 246.73609031 90.3125 245.3125 C90.3125 244.9825 90.3125 244.6525 90.3125 244.3125 C30.9125 244.3125 -28.4875 244.3125 -89.6875 244.3125 Z " fill="#000000" transform="translate(148.6875,29.6875)"/>
<path d="M0 0 C18.31612749 -0.07273062 36.62414386 0.10333206 54.93774414 0.37231445 C57.93576442 0.41624745 60.93380201 0.45787672 63.93188477 0.49731445 C82.63555062 0.74363837 101.31160582 1.15750123 120 2 C120.02343985 13.64210961 120.04107296 25.28421338 120.05181217 36.92634201 C120.05697318 42.33550617 120.06394317 47.74465389 120.07543945 53.15380859 C120.12370677 76.45522386 120.1713127 99.72175932 119 123 C118.34 123 117.68 123 117 123 C115.57226563 121.54882813 115.57226563 121.54882813 113.90625 119.53125 C110.00029514 114.93791178 105.79950678 110.72259253 101.5 106.5 C93.46171143 98.60550908 93.46171143 98.60550908 89.84375 94.34375 C84.27836593 87.8751836 78.06238722 81.9967296 72 76 C58.12319815 62.27348843 58.12319815 62.27348843 52.91015625 56.1328125 C48.03131893 50.68527636 42.69845558 45.63990499 37.5 40.5 C23.92372342 27.07663401 23.92372342 27.07663401 18.64599609 20.86425781 C14.59494234 16.27602784 10.08630797 12.09356755 5.70117188 7.828125 C4.96576172 7.10367187 4.23035156 6.37921875 3.47265625 5.6328125 C2.80500244 4.98199707 2.13734863 4.33118164 1.44946289 3.66064453 C0 2 0 2 0 0 Z " fill="#000000" transform="translate(210,0)"/>
<path d="M0 0 C26.07 0 52.14 0 79 0 C79 26.07 79 52.14 79 79 C52.93 79 26.86 79 0 79 C0 52.93 0 26.86 0 0 Z " fill="#000000" transform="translate(110,140)"/>
</svg>
