<?xml version="1.0" encoding="UTF-8"?>
<svg version="1.1" xmlns="http://www.w3.org/2000/svg" width="330" height="330">
<path d="M0 0 C0.23074219 0.556875 0.46148437 1.11375 0.69921875 1.6875 C2.40775358 5.68533643 4.15447692 9.35267572 6.625 12.9375 C9.11325912 16.73816408 9.83058433 20.25659286 10.53125 24.703125 C10.91781173 27.19916253 10.91781173 27.19916253 12.625 29.875 C14.13777665 33.31312874 14.07190031 35.16740517 13.9375 38.875 C13.81393454 42.90817678 13.86942637 45.4304489 16 48.875 C19.25639674 54.52098284 18.91157951 60.70738023 18 67 C15.72921803 73.36551463 12.49738558 78.94501173 8 84 C7.34 84 6.68 84 6 84 C6.165 83.01 6.33 82.02 6.5 81 C7.2069595 75.86414718 7.84078354 71.0355812 5.8125 66.125 C3.57442733 63.50105274 2.43165427 62.545945 -1 62 C-4.14443525 63.59308391 -4.14443525 63.59308391 -5.9609375 64.95703125 C-8.873195 66.44663422 -11.77602797 66.64220835 -15 67 C-15.02578125 67.98097656 -15.0515625 68.96195312 -15.078125 69.97265625 C-15.53087954 82.05969334 -16.39608731 95.71683104 -25 105 C-25.66 105 -26.32 105 -27 105 C-27.14648394 103.41672673 -27.29213353 101.83337626 -27.4375 100.25 C-27.58058594 98.75919922 -27.58058594 98.75919922 -27.7265625 97.23828125 C-27.9112166 95.05144918 -28.05076726 92.86040853 -28.1484375 90.66796875 C-28.20257813 89.60191406 -28.25671875 88.53585938 -28.3125 87.4375 C-28.34988281 86.44621094 -28.38726562 85.45492187 -28.42578125 84.43359375 C-28.61527344 83.63050781 -28.80476563 82.82742187 -29 82 C-30.9438546 80.81187183 -30.9438546 80.81187183 -33 80 C-33.33 79.01 -33.66 78.02 -34 77 C-35.29549899 78.09966775 -36.58626071 79.20491801 -37.875 80.3125 C-38.59429687 80.92738281 -39.31359375 81.54226562 -40.0546875 82.17578125 C-42.19179331 84.0412324 -42.19179331 84.0412324 -44 87 C-45.60863306 87.68452471 -47.22158948 88.36015715 -48.8515625 88.9921875 C-51.40374736 90.18939422 -53.51498115 91.7419943 -55.8125 93.375 C-61.42652978 97.06599196 -66.98682893 98.59974305 -73.41699219 100.21728516 C-82.94987247 102.62437731 -82.94987247 102.62437731 -91 108 C-91.26053215 109.33061483 -91.4668378 110.67196047 -91.6484375 112.015625 C-91.76525879 112.84860107 -91.88208008 113.68157715 -92.00244141 114.53979492 C-92.12538574 115.4341626 -92.24833008 116.32853027 -92.375 117.25 C-93.38550392 124.34051599 -94.65391583 131.25232123 -96.37109375 138.2109375 C-97.25494335 142.13061834 -97.66095937 145.9993206 -98 150 C-97.46890625 149.72285156 -96.9378125 149.44570312 -96.390625 149.16015625 C-95.68421875 148.79792969 -94.9778125 148.43570313 -94.25 148.0625 C-93.55390625 147.70285156 -92.8578125 147.34320313 -92.140625 146.97265625 C-86.9545135 144.61619318 -81.6169635 144.63853571 -75.99609375 144.28125 C-72.95106732 144.10934377 -72.95106732 144.10934377 -70 143 C-61.63536047 142.35561295 -55.49385778 143.25307111 -48 147 C-47.649375 147.78375 -47.29875 148.5675 -46.9375 149.375 C-44.09799937 153.22206537 -40.50289918 153.83887505 -36 155 C-28.52302823 147.1295034 -28.60523184 138.44821279 -28 128 C-24.99323326 129.05660784 -24.04656623 129.92518868 -22.33203125 132.6796875 C-21.83058594 133.73414063 -21.32914062 134.78859375 -20.8125 135.875 C-20.30332031 136.92429688 -19.79414063 137.97359375 -19.26953125 139.0546875 C-17.27228913 143.68828921 -16.88250563 147.19051793 -16.9375 152.25 C-16.94652344 153.32765625 -16.95554687 154.4053125 -16.96484375 155.515625 C-16.98224609 156.74539062 -16.98224609 156.74539062 -17 158 C-15.906875 158.144375 -14.81375 158.28875 -13.6875 158.4375 C-10 159 -10 159 -7 160 C-6.7525 159.38125 -6.505 158.7625 -6.25 158.125 C-5 156 -5 156 -3.1171875 155.23828125 C1.56994173 152.496916 3.17859794 145.87492906 5 141 C5.91464028 137.35006757 6.56571953 133.73630952 7 130 C7.66 130 8.32 130 9 130 C9.81752303 131.58074564 10.62881997 133.16471223 11.4375 134.75 C11.88996094 135.63171875 12.34242188 136.5134375 12.80859375 137.421875 C15.86541733 144.03664077 16.28675579 152.39161881 14.328125 159.40625 C13.5 161.3125 13.5 161.3125 12 164 C14.97 164.66 17.94 165.32 21 166 C21.48765522 170.09630385 21.25323139 171.64547606 18.8125 175.0625 C17.11134389 176.92567097 15.3504385 178.57572502 13.45703125 180.25390625 C10.61348856 183.43198337 9.94153425 185.77914999 8.875 189.875 C6.6132099 196.73985813 3.7686485 199.54104443 -2.37890625 203.15625 C-5 204 -5 204 -7.1484375 203.37890625 C-9.1394865 201.89612082 -10.53374173 200.39023389 -12.0625 198.4375 C-14.12532214 195.80562347 -14.71297618 195.09567461 -18 194 C-19.62767972 195.39030976 -21.24846952 196.78973281 -22.828125 198.234375 C-27.54520754 202.06912555 -33.23806385 205.07935462 -39 207 C-38.91621094 206.24074219 -38.83242188 205.48148438 -38.74609375 204.69921875 C-38.64425781 203.70535156 -38.54242188 202.71148437 -38.4375 201.6875 C-38.33308594 200.70136719 -38.22867187 199.71523437 -38.12109375 198.69921875 C-37.83397473 195.90069653 -37.83397473 195.90069653 -39 193 C-40.01320313 193.69867188 -41.02640625 194.39734375 -42.0703125 195.1171875 C-43.4216227 196.03682917 -44.77319938 196.95607936 -46.125 197.875 C-46.79015625 198.33519531 -47.4553125 198.79539063 -48.140625 199.26953125 C-51.99188327 201.8747942 -55.45711093 203.76874969 -60 205 C-59.690625 204.278125 -59.38125 203.55625 -59.0625 202.8125 C-56.98872084 197.41994478 -56.98872084 197.41994478 -58.125 191.875 C-60.76684289 187.82417424 -63.49662161 186.50112613 -68 185 C-76.57453217 184.19282953 -83.15445082 185.66172485 -91 189 C-92.47665662 189.54847246 -93.95559936 190.09085836 -95.4375 190.625 C-100.44391919 192.22983642 -100.44391919 192.22983642 -104.03588867 195.70483398 C-106.28122626 202.50556297 -106.42180384 208.94227792 -106.3125 216.0625 C-106.2966687 217.8561499 -106.2966687 217.8561499 -106.28051758 219.68603516 C-106.07827531 233.20606801 -104.3710218 245.87548845 -101 259 C-104.92328117 257.83029135 -107.96441336 256.59078952 -111.1875 254.0625 C-111.84105469 253.55847656 -112.49460938 253.05445313 -113.16796875 252.53515625 C-117.84513986 248.61590626 -117.84513986 248.61590626 -118.52416992 245.9152832 C-118.59224854 245.13499756 -118.66032715 244.35471191 -118.73046875 243.55078125 C-118.81103516 242.70322266 -118.89160156 241.85566406 -118.97460938 240.98242188 C-119.04486328 240.10134766 -119.11511719 239.22027344 -119.1875 238.3125 C-119.26935547 237.41982422 -119.35121094 236.52714844 -119.43554688 235.60742188 C-119.63570104 233.40572602 -119.82336258 231.20368662 -120 229 C-120.41958984 230.03833984 -120.41958984 230.03833984 -120.84765625 231.09765625 C-124.30233631 239.52885292 -128.09838977 247.76951388 -132 256 C-132.99 256 -133.98 256 -135 256 C-134.95399658 255.44650879 -134.90799316 254.89301758 -134.8605957 254.32275391 C-133.54548581 239.88374934 -133.54548581 239.88374934 -137 226 C-137.30292969 227.22074219 -137.60585937 228.44148437 -137.91796875 229.69921875 C-144.56683761 256.02391363 -144.56683761 256.02391363 -152 266 C-152.99 266 -153.98 266 -155 266 C-154.69083423 262.79133632 -154.37706711 259.58313829 -154.0625 256.375 C-153.93198242 255.01955078 -153.93198242 255.01955078 -153.79882812 253.63671875 C-153.4292801 249.88649062 -153.04756775 246.2381075 -152.30859375 242.5390625 C-151.69103422 239.75816018 -151.69103422 239.75816018 -154 237 C-154.49306641 238.07314453 -154.49306641 238.07314453 -154.99609375 239.16796875 C-162.62691211 255.15339582 -173.35721068 268.63963993 -187 280 C-187.66 280 -188.32 280 -189 280 C-188.77169672 274.20109669 -188.1558307 268.99201422 -186.125 263.53125 C-183.71826878 256.55324312 -182.45620649 249.51758373 -181.25 242.25 C-181.02957031 240.96867188 -180.80914062 239.68734375 -180.58203125 238.3671875 C-180.04632459 235.24611391 -179.5191483 232.12386274 -179 229 C-179.32572998 229.45101074 -179.65145996 229.90202148 -179.98706055 230.36669922 C-180.44894775 231.00623535 -180.91083496 231.64577148 -181.38671875 232.3046875 C-181.9062915 233.02430664 -182.42586426 233.74392578 -182.96118164 234.48535156 C-184.12753133 236.09986589 -185.29470764 237.71378333 -186.46264648 239.32714844 C-189.43960119 243.44180044 -192.40489206 247.56342955 -195.3359375 251.7109375 C-211.28297302 274.19726659 -211.28297302 274.19726659 -221 283 C-221.66 283 -222.32 283 -223 283 C-220.73366232 271.21504407 -217.55311039 260.11267621 -213 249 C-212.49357115 247.6690952 -211.99267159 246.33605856 -211.5 245 C-211.26152344 244.37222656 -211.02304688 243.74445313 -210.77734375 243.09765625 C-210.20436427 241.55147544 -209.65889274 239.99503376 -209.12890625 238.43359375 C-203.58564558 222.85967093 -194.92158783 208.45694176 -187 194 C-192.70776879 201.29254432 -198.26867512 208.6772813 -203.6875 216.1875 C-204.24614746 216.96125977 -204.80479492 217.73501953 -205.38037109 218.53222656 C-208.25217224 222.52458489 -211.06118333 226.54827736 -213.8125 230.625 C-218.77512637 237.70066679 -224.91938239 243.08699142 -231.6875 248.375 C-232.50758545 249.01888672 -232.50758545 249.01888672 -233.34423828 249.67578125 C-236.43013592 252.02658371 -239.32101222 253.75774438 -243 255 C-241.40376856 250.60616294 -239.21975667 246.71004193 -236.875 242.6875 C-236.50246094 242.04232422 -236.12992187 241.39714844 -235.74609375 240.73242188 C-234.83367787 239.15324055 -233.91724491 237.57638136 -233 236 C-233.48984375 236.37898437 -233.9796875 236.75796875 -234.484375 237.1484375 C-243.81867093 244.01871121 -253.58660011 250.38164611 -263.6875 256.0625 C-264.63834473 256.59834717 -264.63834473 256.59834717 -265.60839844 257.14501953 C-276.22565499 263 -276.22565499 263 -281 263 C-279.6643962 258.9931886 -277.05100777 257.74587952 -273.6875 255.5 C-267.51385882 251.25070352 -262.04612392 246.60699169 -256.62109375 241.4453125 C-254 239 -254 239 -251.3359375 236.8828125 C-249.33116541 235.26692597 -247.78085187 233.75307093 -246.1875 231.75 C-245.465625 230.8425 -244.74375 229.935 -244 229 C-248.62 229.33 -253.24 229.66 -258 230 C-258 229.01 -258 228.02 -258 227 C-256.671875 225.7734375 -256.671875 225.7734375 -254.75 224.375 C-245.10500409 216.32606213 -238.07731001 203.84853146 -232 193 C-236.1547115 196.91424588 -239.81335724 200.98598131 -243.3125 205.5 C-247.66428717 210.85379531 -252.03646834 214.55918284 -258 218 C-259.04285156 218.61875 -260.08570313 219.2375 -261.16015625 219.875 C-271.92925251 225.59943655 -283.82326302 227.7206924 -296 228 C-296.99 227.67 -297.98 227.34 -299 227 C-298.41734375 226.59910156 -297.8346875 226.19820312 -297.234375 225.78515625 C-283.83584901 216.49466889 -271.3724817 206.71139672 -260 195 C-260.96679688 195.42152344 -261.93359375 195.84304687 -262.9296875 196.27734375 C-270.27961208 199.39881654 -276.88082441 201.96179211 -285 202 C-284 199 -284 199 -281.26171875 197.4921875 C-280.08222656 196.95851562 -278.90273438 196.42484375 -277.6875 195.875 C-269.16032355 191.85625586 -261.69461781 186.69461781 -255 180 C-260.28 180.33 -265.56 180.66 -271 181 C-269.86225545 177.58676635 -269.09696878 177.07999479 -266.25 175.0625 C-263.08600513 172.79819069 -260.02474377 170.44835029 -257 168 C-258.00417969 168.26554688 -259.00835937 168.53109375 -260.04296875 168.8046875 C-281.99049735 174.51206989 -281.99049735 174.51206989 -293 174 C-292.67 173.01 -292.34 172.02 -292 171 C-290.13671875 170.1484375 -290.13671875 170.1484375 -287.6875 169.375 C-277.90300737 165.69882634 -270.26293283 158.58954987 -263.11328125 151.15234375 C-259.91838853 147.89839571 -256.47701759 144.9464645 -253 142 C-259.14118527 140.21457114 -265.31522197 138.56486477 -271.5 136.9375 C-273.01013672 136.5343457 -273.01013672 136.5343457 -274.55078125 136.12304688 C-279.69528848 134.77118095 -284.71281432 133.60149163 -290 133 C-290 132.01 -290 131.02 -290 130 C-282.07681038 126.43877913 -274.14516054 122.96356897 -266 119.9375 C-265.34708984 119.69362549 -264.69417969 119.44975098 -264.02148438 119.19848633 C-260.60218978 117.93135078 -257.17136603 116.712388 -253.71875 115.5390625 C-241.40987612 111.40865944 -241.40987612 111.40865944 -233 102 C-228.43545749 102.54339792 -225.0271824 103.79463821 -221 106 C-224.28876861 101.1619613 -224.28876861 101.1619613 -229.6015625 99.08203125 C-230.94084722 98.96774873 -232.28249009 98.87891673 -233.625 98.8125 C-235.07216428 98.68855042 -236.51880508 98.55833057 -237.96484375 98.421875 C-239.01260986 98.32616211 -239.01260986 98.32616211 -240.08154297 98.22851562 C-242.5488216 97.93462751 -244.81990692 97.30736074 -247.1875 96.5625 C-252.42690455 94.97337129 -257.64807158 94.3571461 -263.0625 93.6875 C-271.09593765 92.67525531 -278.40774051 90.9016368 -285.96313477 87.98120117 C-292.4822284 85.52696326 -298.30279592 84.98854847 -305 87.5 C-305.763125 87.7784375 -306.52625 88.056875 -307.3125 88.34375 C-307.869375 88.5603125 -308.42625 88.776875 -309 89 C-308.36480424 83.44684921 -305.81053563 81.49289819 -301.69921875 78.00390625 C-297.40512747 74.81596294 -292.78723325 72.36229828 -288 70 C-291.3 69.34 -294.6 68.68 -298 68 C-294.9517337 61.90346741 -289.75579361 60.50021334 -283.75 57.6875 C-282.63625 57.12482422 -281.5225 56.56214844 -280.375 55.98242188 C-272.80336117 52.41904116 -267.42888022 51.67321805 -259.14697266 52.69360352 C-254.84980122 53.11198599 -251.92886836 52.38289971 -247.8125 51.125 C-237.40744631 48.00893157 -227.3067643 47.80604205 -216.5 48.25 C-215.37376221 48.29084717 -214.24752441 48.33169434 -213.0871582 48.3737793 C-205.21177302 48.72507476 -197.56944024 49.59656333 -189.875 51.33496094 C-185.95621755 52.12906758 -184.43061528 52.27534803 -180.98828125 50.07421875 C-180.00408203 49.04748047 -180.00408203 49.04748047 -179 48 C-180.58199631 47.35089846 -182.16565724 46.70585306 -183.75 46.0625 C-184.63171875 45.70285156 -185.5134375 45.34320313 -186.421875 44.97265625 C-188.61186104 44.14643424 -190.71898271 43.50630057 -193 43 C-193 42.01 -193 41.02 -193 40 C-180.83510649 36.45805527 -166.06757715 34.88372558 -153.54589844 37.51586914 C-150.69104909 38.05875045 -148.14160191 38.05006622 -145.23828125 37.94921875 C-144.12743164 37.91119141 -143.01658203 37.87316406 -141.87207031 37.83398438 C-140.11008301 37.76147461 -140.11008301 37.76147461 -138.3125 37.6875 C-136.50604004 37.61692383 -136.50604004 37.61692383 -134.66308594 37.54492188 C-123.80351429 37.07541277 -112.98637568 36.25358892 -102.27734375 34.33203125 C-97.54563557 33.85265676 -94.86643434 35.44194691 -91 38 C-88.5 40.25 -88.5 40.25 -87 42 C-86.4225 41.4225 -85.845 40.845 -85.25 40.25 C-82.05548253 38.03841098 -79.67937373 37.17265587 -76 36.0625 C-71.09432582 34.53548867 -68.32082726 33.04725822 -65 29 C-61.67555536 25.99943636 -58.45821847 25.12405033 -54.14453125 24.0625 C-53.48345871 23.8962915 -52.82238617 23.73008301 -52.14128113 23.55883789 C-50.03377122 23.03038968 -47.92344834 22.51452405 -45.8125 22 C-29.93812849 19.35311055 -29.93812849 19.35311055 -17.1875 11.125 C-16.34832031 10.073125 -16.34832031 10.073125 -15.4921875 9 C-14.99976563 8.34 -14.50734375 7.68 -14 7 C-9.63976975 1.26941168 -7.32379297 -0.33289968 0 0 Z M-145 68 C-142.97655147 70.02344853 -141.78169492 70.62383195 -139.1875 71.6875 C-132.91131886 74.38461706 -126.979336 77.70997895 -121 81 C-120.5875 80.62488281 -120.175 80.24976562 -119.75 79.86328125 C-115.8838471 76.43724843 -111.96083034 73.59373164 -107.50390625 70.98046875 C-107.00761719 70.65691406 -106.51132813 70.33335938 -106 70 C-106 69.67 -106 69.34 -106 69 C-107.14597656 68.95101562 -108.29195312 68.90203125 -109.47265625 68.8515625 C-111.00262535 68.77647199 -112.53257218 68.70092694 -114.0625 68.625 C-114.81466797 68.5940625 -115.56683594 68.563125 -116.34179688 68.53125 C-121.20453002 68.27864049 -125.35630215 67.45297179 -130 66 C-135.21865603 65.54620382 -139.96835866 66.74768038 -145 68 Z M-186 191 C-185 193 -185 193 -185 193 Z " fill="#000000" transform="translate(309,23)"/>
</svg>
