<?xml version="1.0" encoding="UTF-8"?>
<svg version="1.1" xmlns="http://www.w3.org/2000/svg" width="330" height="330">
<path d="M0 0 C0 0.66 0 1.32 0 2 C-1.01030273 2.18006592 -1.01030273 2.18006592 -2.04101562 2.36376953 C-30.22718083 7.46975004 -55.30085775 15.71562736 -72.41162109 40.25561523 C-88.14250867 64.08768691 -94.18768491 90.78345762 -88.54492188 118.77783203 C-87.76828977 121.94490434 -86.71176392 124.99091697 -85.59472656 128.05249023 C-85 130 -85 130 -85 133 C-85.66 133 -86.32 133 -87 133 C-88.80915581 130.68220947 -90.48151022 128.3698093 -92.125 125.9375 C-92.61637451 125.21159668 -93.10774902 124.48569336 -93.61401367 123.73779297 C-111.95590388 96.21749067 -116.66397592 67.6616586 -115.69726562 34.90820312 C-115.60067744 27.90019378 -115.96095168 22.47349918 -119.1315918 16.1550293 C-120.1443736 13.64172456 -120.14991089 11.68514265 -120 9 C-119.04222656 8.87625 -118.08445312 8.7525 -117.09765625 8.625 C-109.33719975 7.47508358 -102.69384967 5.6967835 -95.6875 2.125 C-65.96070109 -12.9984916 -30.84660383 -10.28220128 0 0 Z " fill="#000000" transform="translate(197,27)"/>
<path d="M0 0 C2.5990284 0.34803404 3.75100656 0.72503014 5.53515625 2.6953125 C13.82746549 15.88665866 20.92232253 30.28031815 25.5 45.1875 C25.71857666 45.88415771 25.93715332 46.58081543 26.16235352 47.29858398 C30.58502355 62.89045857 31.51715196 79.01463569 31.375 95.125 C31.37101196 96.44333328 31.37101196 96.44333328 31.36694336 97.78829956 C31.31429536 112.69460111 30.33800467 127.26103615 28 142 C27.34 142 26.68 142 26 142 C25.87995605 141.33693848 25.75991211 140.67387695 25.63623047 139.99072266 C21.19237074 115.78987224 15.62583784 92.00635553 -1 73 C-1.5671875 72.27941406 -2.134375 71.55882813 -2.71875 70.81640625 C-7.63258097 64.8094561 -13.34531689 60.70504121 -19.671875 56.33984375 C-24.58889172 52.93226876 -28.92895968 48.98099509 -33.24609375 44.8515625 C-48.33896499 30.70048642 -65.17210352 24.98338212 -85 21 C-85 20.34 -85 19.68 -85 19 C-80.11388197 17.60242625 -75.22492543 16.21540569 -70.33325195 14.83740234 C-68.6752387 14.36882291 -67.01798567 13.89754366 -65.36157227 13.42333984 C-51.28576595 9.39681648 -37.69881708 5.9000225 -22.94921875 7.40625 C-12.58197087 8.60768628 -12.58197087 8.60768628 -3.34765625 4.421875 C-1.76773213 2.83552358 -1.76773213 2.83552358 0 0 Z " fill="#000000" transform="translate(272,0)"/>
<path d="M0 0 C0.99 0 1.98 0 3 0 C3.15855469 0.98097656 3.31710938 1.96195312 3.48046875 2.97265625 C7.20200969 24.97984544 15.37263969 45.8448313 30.6875 62.40625 C34.74419631 66.95632829 36.92124744 71.98867704 39.25 77.5625 C46.9821868 95.559725 58.57400038 110.21946521 72.78515625 123.625 C74 125 74 125 74 127 C2.13456058 111.46934799 2.13456058 111.46934799 -21 90 C-21 89.34 -21 88.68 -21 88 C-20.236875 87.319375 -19.47375 86.63875 -18.6875 85.9375 C-13.0037627 79.72504296 -12.41462916 71.31520413 -11.53515625 63.21875 C-11.41571152 62.20639282 -11.29626678 61.19403564 -11.17320251 60.15100098 C-10.66803928 55.86756262 -10.18473545 51.5817384 -9.70043945 47.29589844 C-7.85299846 31.09813298 -5.59679835 15.39119548 0 0 Z " fill="#000000" transform="translate(77,104)"/>
<path d="M0 0 C0.99 0 1.98 0 3 0 C3.95948081 1.37068687 4.9074311 2.75083239 5.796875 4.16796875 C17.80486882 22.45286843 40.40658522 32.98664194 61.125 37.875 C85.7869552 42.21488042 111.28479527 37.68650418 132.4375 24.125 C138.64107133 19.74148472 144.45187816 14.7829857 149.65234375 9.23828125 C151 8 151 8 153 8 C146.50610798 25.30697733 127.83741017 43.2161091 113 54 C111.515 54.495 111.515 54.495 110 55 C110 55.66 110 56.32 110 57 C108.53125 58.375 108.53125 58.375 106.5 60 C99.29603691 66.17844286 94.09205484 73.56930625 89.1875 81.625 C88.81439697 82.23408203 88.44129395 82.84316406 88.05688477 83.47070312 C84.71119498 89.12248302 81.36774753 95.25597362 82 102 C78.53943802 100.84647934 78.382041 100.40639664 76.72265625 97.3515625 C76.08517456 96.2219812 76.08517456 96.2219812 75.43481445 95.06958008 C74.98195068 94.26286865 74.52908691 93.45615723 74.0625 92.625 C69.05752294 84.06347764 63.66629873 78.23816546 56 72 C43.569696 61.47130406 31.96581311 49.89257607 22 37 C21.11488276 35.92468672 20.2266798 34.85190836 19.3359375 33.78125 C14.30501766 27.66997517 9.8429484 21.45725441 5.9375 14.5625 C5.56753906 13.9125708 5.19757813 13.2626416 4.81640625 12.59301758 C2.56818058 8.47848991 1.13318491 4.55035392 0 0 Z " fill="#000000" transform="translate(122,180)"/>
<path d="M0 0 C0.66 0 1.32 0 2 0 C8.18344797 26.36290989 11.95790234 51.66715227 12.51757812 78.75 C12.55173828 79.98492187 12.58589844 81.21984375 12.62109375 82.4921875 C12.6461499 83.59933105 12.67120605 84.70647461 12.69702148 85.84716797 C13.01804501 89.18777856 13.71755015 91.90213412 15 95 C17.00136244 96.42055068 17.00136244 96.42055068 19 97 C4.45435419 116.91897849 -31.66623695 127.51358371 -54.8125 131.6875 C-57.56100642 131.94631204 -60.28311577 132.04344843 -63.04296875 132.0546875 C-63.77346436 132.05766846 -64.50395996 132.06064941 -65.2565918 132.0637207 C-68.50473913 132.06195329 -71.75204639 132.03547522 -75 132 C-72.06011938 128.84415658 -69.01921481 126.60575919 -65.375 124.3125 C-59.37245074 120.38409169 -54.16886798 115.95828447 -49 111 C-47.6696875 109.7315625 -47.6696875 109.7315625 -46.3125 108.4375 C-45.549375 107.633125 -44.78625 106.82875 -44 106 C-43.49339844 105.48824219 -42.98679687 104.97648437 -42.46484375 104.44921875 C-34.7330348 96.22426481 -29.53844052 85.98371158 -24.3125 76.0625 C-22.42150242 72.48047241 -20.53505653 69.21961526 -18 66.0625 C-5.19894809 49.70179729 -2.29129157 28.44855594 -1.24609375 8.3125 C-1.03344708 5.4502083 -0.6400045 2.7927469 0 0 Z " fill="#000000" transform="translate(309,108)"/>
<path d="M0 0 C3.16732351 0.62170036 6.33372739 1.24797129 9.5 1.875 C10.386875 2.04902344 11.27375 2.22304687 12.1875 2.40234375 C17.50274509 3.45757623 22.75440373 4.63957667 28 6 C25.43006652 15.79159015 16.70435289 22.20331952 8.4375 27.375 C-6.43441358 36 -6.43441358 36 -10 36 C-8.95920467 39.01830646 -8.06246918 39.96077517 -5.3125 41.6875 C-0.26514249 43.68739637 4.60202297 44.16357506 10 44 C9 47 9 47 7.171875 48.16796875 C-1.11104515 51.65481094 -9.95092398 52.75210861 -18.5625 49.625 C-22 48 -22 48 -23.7487793 46.79370117 C-27.19087954 45.5801378 -30.07593168 46.6988861 -33.45703125 47.67578125 C-34.18849365 47.87600891 -34.91995605 48.07623657 -35.67358398 48.28253174 C-38.05835044 48.94224578 -40.43550301 49.62535445 -42.8125 50.3125 C-43.62278656 50.54274872 -44.43307312 50.77299744 -45.26791382 51.01022339 C-74.90483983 59.44801331 -104.67519192 69.36613291 -120.55859375 97.7890625 C-121.03425781 98.51867187 -121.50992188 99.24828125 -122 100 C-122.66 100 -123.32 100 -124 100 C-123.6374787 83.55471555 -116.09772652 69.46649126 -104.48828125 58.09765625 C-101.78794828 55.8212374 -98.94335822 54.09827482 -95.9375 52.25 C-93.07796677 50.41678102 -93.07796677 50.41678102 -91 48 C-90.38145087 44.57184388 -90.55554447 41.64389845 -90.8515625 38.1796875 C-91.16630376 31.43759842 -87.73261693 26.6418874 -83.5625 21.625 C-80.96633303 18.83981873 -78.56793334 16.48663889 -75 15 C-74.01 15.33 -73.02 15.66 -72 16 C-72.61875 16.804375 -73.2375 17.60875 -73.875 18.4375 C-78.24235487 25.03499352 -78.11170425 32.35756727 -78 40 C-65.54464708 36.70171839 -53.28867366 32.87123417 -41.09048462 28.73132324 C-39.5421405 28.20617066 -37.99281353 27.68390617 -36.44247437 27.16467285 C-17.14590864 20.77736132 -17.14590864 20.77736132 -3.6875 6.25 C-3.32849609 5.64800781 -2.96949219 5.04601562 -2.59960938 4.42578125 C-1.7244967 2.95559196 -0.86102469 1.47848409 0 0 Z " fill="#000000" transform="translate(127,230)"/>
<path d="M0 0 C16.03873674 7.04841346 26.13425017 29.19457417 32.4296875 44.46875 C37.56849923 58.64037986 40.32356053 74.04483201 42 89 C42.12503906 89.79148437 42.25007813 90.58296875 42.37890625 91.3984375 C42.85442571 96.51785973 41.56626347 99.11312592 38.375 103.125 C36.93165296 104.7633255 35.47406108 106.38925326 34 108 C32.99753417 109.22715645 31.9972441 110.45609637 31 111.6875 C27.65381586 115.52315257 23.92646159 118.77087799 20 122 C19.26499268 122.61149902 19.26499268 122.61149902 18.51513672 123.23535156 C-0.88461701 139.29315559 -20.5061151 149.63937131 -46 151 C-45 148 -45 148 -42.55078125 146.5625 C-41.48214844 146.046875 -40.41351563 145.53125 -39.3125 145 C-14.38228237 132.28121041 5.75502095 107.81005584 14.4375 81.25 C21.64803858 54.81135855 16.82867358 31.86051527 3.76953125 8.3125 C2.30546835 5.57182597 1.07452506 2.90948323 0 0 Z " fill="#000000" transform="translate(251,62)"/>
<path d="M0 0 C0.74765625 0.45890625 1.4953125 0.9178125 2.265625 1.390625 C8.79995923 6.10670971 11.10707018 14.48416385 12.61328125 22.1015625 C15.06035328 40.4422438 8.28935734 57.54530757 -2.29296875 72.29296875 C-5.89724242 76.94766826 -5.89724242 76.94766826 -8 79 C-8.66 79 -9.32 79 -10 79 C-9.80664062 78.46632813 -9.61328125 77.93265625 -9.4140625 77.3828125 C-3.94983226 61.74753983 -2.80975322 45.67617963 -9.21875 30.0234375 C-17.03360531 14.6108062 -31.04812743 2.78381576 -47.3125 -2.75 C-59.5399419 -6.67625686 -71.29272313 -7.29362129 -84 -7 C-83 -10 -83 -10 -80.8125 -11.31640625 C-79.884375 -11.72761719 -78.95625 -12.13882813 -78 -12.5625 C-77.0925 -12.97628906 -76.185 -13.39007813 -75.25 -13.81640625 C-49.19892603 -23.30375651 -22.40023392 -13.93049373 0 0 Z " fill="#000000" transform="translate(248,76)"/>
<path d="M0 0 C0.66 0 1.32 0 2 0 C1.51940345 5.93832996 0.3101152 10.36038954 -2.4375 15.625 C-2.79312012 16.3152124 -3.14874023 17.0054248 -3.51513672 17.71655273 C-14.55595403 38.54994968 -31.75827922 56.21982381 -51.4375 69.0625 C-52.0046875 69.43294434 -52.571875 69.80338867 -53.15625 70.18505859 C-56.6529064 72.38080175 -59.93755592 74.18205824 -64 75 C-81.2214592 68.64009941 -96.36597377 47.99510257 -104 32 C-104.33773437 31.3090625 -104.67546875 30.618125 -105.0234375 29.90625 C-106.53503115 26.63344174 -107 24.68807546 -107 21 C-106.01 21.33 -105.02 21.66 -104 22 C-104 22.66 -104 23.32 -104 24 C-103.46503906 24.24105469 -102.93007812 24.48210937 -102.37890625 24.73046875 C-99.36207938 26.34043383 -96.70854705 28.30913063 -93.9375 30.3125 C-80.62875283 39.7167704 -67.22671878 43.6762127 -51 42 C-28.94549162 37.20554166 -13.30718317 19.88538719 -1.41015625 1.80078125 C-0.94480469 1.20652344 -0.47945313 0.61226562 0 0 Z " fill="#000000" transform="translate(259,135)"/>
<path d="M0 0 C0.66 0 1.32 0 2 0 C2.34611328 1.61455078 2.34611328 1.61455078 2.69921875 3.26171875 C5.86860527 17.6264096 9.81774205 35.09847205 20.5625 45.75 C23.88912183 49.26546936 25.1498623 52.9249966 26.4375 57.5 C32.39314025 78.52540102 45.70439983 98.33263921 64.38671875 110.2109375 C65.24910156 110.80132812 66.11148438 111.39171875 67 112 C67 112.66 67 113.32 67 114 C47.17375688 111.72611387 28.08398111 99.50042897 15.53076172 84.21044922 C8.35203674 74.93644132 2.96156743 65.02413709 -1 54 C-1.35964844 53.01644531 -1.71929687 52.03289062 -2.08984375 51.01953125 C-6.39480279 36.31918726 -6.97938889 13.95877779 0 0 Z " fill="#000000" transform="translate(117,98)"/>
<path d="M0 0 C8.01149469 6.77994799 18.79308827 17.08732706 20.96484375 27.625 C16.95024997 26.3807107 13.40222222 24.88041636 9.71484375 22.875 C-12.19234358 11.74407543 -37.23173672 7.56048801 -61.00146484 14.94921875 C-74.10645892 19.30391546 -87.5687348 25.93973516 -97.30078125 35.95703125 C-99.03515625 37.625 -99.03515625 37.625 -102.03515625 37.625 C-100.5586235 33.23618995 -98.18215291 29.85131701 -95.34765625 26.25 C-94.89342285 25.6720166 -94.43918945 25.0940332 -93.97119141 24.49853516 C-77.99877728 4.4042077 -54.59682165 -6.62230414 -29.8984375 -12.06640625 C-18.80721111 -13.26177717 -8.35231451 -6.53565923 0 0 Z " fill="#000000" transform="translate(228.03515625,43.375)"/>
<path d="M0 0 C1.48983398 0.0009668 1.48983398 0.0009668 3.00976562 0.00195312 C8.21164673 0.03306072 13.18695168 0.29142512 18.3125 1.1875 C18.3125 2.1775 18.3125 3.1675 18.3125 4.1875 C17.30832031 4.70957031 16.30414063 5.23164062 15.26953125 5.76953125 C-4.20847833 16.15014206 -20.61067304 30.24673025 -27.94140625 51.69140625 C-28.7820435 54.5038 -29.37185813 57.26781269 -29.6875 60.1875 C-30.6775 60.1875 -31.6675 60.1875 -32.6875 60.1875 C-41.89358294 48.07321931 -48.74224557 33.07887563 -48.5 17.7265625 C-47.6875 14.1875 -47.6875 14.1875 -45.5 11.8359375 C-42.30407275 9.90648142 -39.17655318 8.51502352 -35.6875 7.1875 C-34.511875 6.70925781 -33.33625 6.23101562 -32.125 5.73828125 C-21.35126149 1.61543614 -11.50479311 -0.14352664 0 0 Z " fill="#000000" transform="translate(172.6875,74.8125)"/>
<path d="M0 0 C-0.27714844 1.10214844 -0.55429688 2.20429687 -0.83984375 3.33984375 C-2.75698463 11.24640321 -4.37125763 19.05924078 -4.9375 27.1875 C-4.99478271 27.86868896 -5.05206543 28.54987793 -5.11108398 29.25170898 C-5.52840992 37.21036 -1.83015213 42.88543376 3.015625 48.8125 C10.68895703 57.27129121 20.96206818 61.91764876 31 67 C31 67.33 31 67.66 31 68 C8.62827202 68.81024367 -7.41741717 64.29086641 -25 50 C-25.94359375 49.28650391 -25.94359375 49.28650391 -26.90625 48.55859375 C-28 47 -28 47 -27.84765625 44.57421875 C-24.96576003 33.97859036 -14.50511592 0 0 0 Z " fill="#000000" transform="translate(174,98)"/>
<path d="M0 0 C0.99 0 1.98 0 3 0 C3.985267 2.22664317 4.96331444 4.45601317 5.9375 6.6875 C6.35418945 7.62625977 6.35418945 7.62625977 6.77929688 8.58398438 C11.30685366 19.00281987 11.74635434 31.77944595 8.25 42.625 C7.53249817 44.42992675 6.78554414 46.22363015 6 48 C5.72285156 48.74378906 5.44570312 49.48757812 5.16015625 50.25390625 C4.3125 52.1875 4.3125 52.1875 2 55 C-5.74091317 58.00393645 -16.27602953 55.35318718 -23.625 52.25 C-25.09650275 51.52617973 -26.55481302 50.77502948 -28 50 C-28.80050781 49.57847656 -29.60101563 49.15695313 -30.42578125 48.72265625 C-37.14538229 44.95006531 -46.47074214 39.58777357 -49 32 C-45.86758465 32.4894399 -43.47570488 33.23831596 -40.5625 34.5625 C-30.13172763 38.46185416 -19.21084658 36.1574125 -9.328125 31.83203125 C-5.48938269 29.71892075 -3.78993523 28.26053336 -2.4609375 24.1171875 C-2.30882812 23.41851562 -2.15671875 22.71984375 -2 22 C-1.78601563 21.32195312 -1.57203125 20.64390625 -1.3515625 19.9453125 C0.49292403 13.40576934 0.18742041 6.73672266 0 0 Z " fill="#000000" transform="translate(228,105)"/>
<path d="M0 0 C2.22480879 1.58280945 4.05023563 3.06746233 6 4.9375 C6.52964355 5.43531982 7.05928711 5.93313965 7.60498047 6.44604492 C11.74584709 10.47071048 14.84069168 14.60172919 17 20 C17.36609375 20.90363281 17.7321875 21.80726562 18.109375 22.73828125 C19.19723023 26.72231246 19.22143148 30.27295311 19.125 34.375 C19.11597656 35.11105469 19.10695312 35.84710938 19.09765625 36.60546875 C19.07430144 38.4037888 19.03843836 40.20193911 19 42 C18.01 42 17.02 42 16 42 C15.690625 41.175 15.38125 40.35 15.0625 39.5 C11.74608151 32.89844998 4.62932121 27.51041509 -2.04296875 24.5625 C-8.44315089 22.72292669 -14.03449203 25.58003898 -19.59375 28.53125 C-23.5728444 30.96004788 -27.87235442 33.74470883 -30 38 C-30.66 38 -31.32 38 -32 38 C-31.8093547 26.94257255 -26.65874212 17.31208225 -19.125 9.4375 C-13.92969171 4.63757286 -7.5481925 -1.22982509 0 0 Z " fill="#000000" transform="translate(206,81)"/>
</svg>
