<?xml version="1.0" encoding="UTF-8"?>
<svg version="1.1" xmlns="http://www.w3.org/2000/svg" width="330" height="330">
<path d="M0 0 C4.43436623 1.64680525 8.52535561 3.77446223 12.6875 6 C13.42355469 6.39227783 14.15960938 6.78455566 14.91796875 7.1887207 C20.46335521 10.15519803 25.99047192 13.15496658 31.5 16.1875 C32.21631592 16.57873047 32.93263184 16.96996094 33.6706543 17.37304688 C35.79894894 18.55277943 37.90307523 19.76541645 40 21 C40.70116943 21.40694092 41.40233887 21.81388184 42.12475586 22.2331543 C49.22291779 26.63012638 54.79198719 32.48810035 60.5625 38.4375 C62.05776681 39.96825843 63.55533774 41.49665713 65.05589294 43.02223206 C66.4161941 44.40681586 67.7699736 45.79779837 69.12329102 47.18920898 C71.23555026 49.30551426 73.44211044 51.2677234 75.71069336 53.21508789 C80.75855238 57.58901819 85.42599793 62.31998083 90.125 67.0625 C91.0805937 68.02251375 92.03649184 68.98222453 92.99267578 69.94165039 C96.50550592 73.46770473 100.01280573 76.9992429 103.52026367 80.53063965 C106.49665517 83.52691208 109.47519157 86.52102231 112.45648193 89.51242065 C113.83653133 90.8988534 115.21347744 92.28837298 116.59033203 93.67797852 C121.04672591 98.15159964 125.55477616 102.48485147 130.35876465 106.58485413 C132.50811944 108.43812311 134.51167511 110.41366931 136.5 112.4375 C137.50546875 113.45650391 137.50546875 113.45650391 138.53125 114.49609375 C139.0159375 114.99238281 139.500625 115.48867187 140 116 C143.39937833 114.58301067 143.89181682 114.22934833 145.5625 110.6875 C146.036875 109.470625 146.51125 108.25375 147 107 C149.52066968 101.82599381 153.42014858 97.45942348 158 94 C160.125 93.44140625 160.125 93.44140625 162.1875 93.3125 C166.08568007 93.32431563 166.08568007 93.32431563 168.9375 90.875 C171.27493053 88.08862867 171.27493053 88.08862867 171.5 84.375 C171.665 83.26125 171.83 82.1475 172 81 C172.804375 80.525625 173.60875 80.05125 174.4375 79.5625 C177.10830128 78.30568429 177.10830128 78.30568429 177.6328125 76.1875 C177.91896681 74.77233686 178.20412533 73.356972 178.48828125 71.94140625 C179.26551756 68.99265475 180.48790015 67.67473324 183 66 C186.14522722 65.68547728 188.15916359 65.57958179 191 67 C191.12375 65.865625 191.2475 64.73125 191.375 63.5625 C193.2127608 49.35216437 193.2127608 49.35216437 199.98828125 43.75390625 C203.37730285 40.79920586 205.49581709 37.21775911 207 33 C207.20370117 29.14939633 207.20370117 29.14939633 206 26 C205.01 25.34 204.02 24.68 203 24 C204.08388635 21.56125571 205.21185036 19.74714634 206.9375 17.6875 C209.20502225 15.02678834 209.20502225 15.02678834 210.25 11.375 C212.13676881 7.73623157 212.39863212 7.49864945 216 6.25 C216.680625 6.06953125 217.36125 5.8890625 218.0625 5.703125 C220.11535616 5.13435574 220.11535616 5.13435574 221.4375 3.359375 C223 2 223 2 225.37109375 2.08984375 C231.78295357 4.30970012 237.5463553 9.33909086 240.625 15.375 C242 19 242 19 242 21 C243.32 20.34 244.64 19.68 246 19 C245.2265625 18.13375 245.2265625 18.13375 244.4375 17.25 C243 15 243 15 243 13 C244.3999653 10.20006939 246.52282913 8.85787815 249 7 C249.33 6.34 249.66 5.68 250 5 C251.875 5.3125 251.875 5.3125 254 6 C254.99 7.485 254.99 7.485 256 9 C256.4125 8.505 256.825 8.01 257.25 7.5 C259 6 259 6 263 6 C264.921875 7.75 264.921875 7.75 266.75 10 C267.36359375 10.7425 267.9771875 11.485 268.609375 12.25 C269.06828125 12.8275 269.5271875 13.405 270 14 C268.625 16 268.625 16 267 18 C266.34 18 265.68 18 265 18 C265 18.66 265 19.32 265 20 C266.98 20.99 266.98 20.99 269 22 C268.75 23.875 268.75 23.875 268 26 C266.67532254 26.6837045 265.34136367 27.34964186 264 28 C262.73195434 30.0335948 262.73195434 30.0335948 262 32 C260.68 32 259.36 32 258 32 C256.25 30 256.25 30 255 28 C254.34 29.32 253.68 30.64 253 32 C254.19625 32.515625 255.3925 33.03125 256.625 33.5625 C263.4672003 36.99568884 267.88507491 43.12120709 271 50 C270.35957483 52.5617007 269.48597588 53.55628289 267.5625 55.3125 C265.70464132 57.08901594 265.70464132 57.08901594 264.8125 60.5 C262.89413052 64.20443762 262.75393455 64.45516012 259.125 65.6875 C258.42246094 65.89375 257.71992188 66.1 256.99609375 66.3125 C254.18843262 67.27952223 252.26499855 69.12328691 250 71 C249.01 71 248.02 71 247 71 C246.566875 70.34 246.13375 69.68 245.6875 69 C244.13497131 66.73155909 244.13497131 66.73155909 241.3125 66.5 C234.64949283 67.50573693 230.47542585 70.43063242 225.8125 75.1875 C221.12803681 79.60217735 217.10657712 79.91282974 210.8203125 79.96484375 C207.91895987 79.85791425 207.91895987 79.85791425 205 81 C204.938125 82.2375 204.87625 83.475 204.8125 84.75 C204.39232188 87.95811675 204.10850318 88.87176897 201.9375 91.4375 C198.15777896 93.44798992 195.25789442 93.71132919 191 94 C190.34 95.65 189.68 97.3 189 99 C187.948125 98.9175 186.89625 98.835 185.8125 98.75 C181.2669375 99.04806967 179.98740971 99.59767227 177 103 C176.53603976 104.38083406 176.12411036 105.77966363 175.75 107.1875 C173.94120282 113.30103236 170.06672071 117.26212782 165 121 C162.4192516 122.12058812 160.00682439 122.86808166 157.26171875 123.46484375 C154.93829385 124.01460059 153.08796073 124.85807182 151 126 C159.06763489 135.76608434 168.1916719 145.03948463 177.94140625 153.1328125 C179.70556169 154.73293831 181.29274294 156.36642993 182.90234375 158.1171875 C183.4236084 158.67325684 183.94487305 159.22932617 184.48193359 159.80224609 C185.51439213 160.91125392 186.53005841 162.03620229 187.52587891 163.17822266 C189.12384966 164.9672969 189.12384966 164.9672969 192 167 C194.34241788 166.73801905 196.67826092 166.40630434 199 166 C203.34663707 168.54780789 207.29376009 172.39897009 208.640625 177.359375 C208.73895499 182.11199097 207.52180427 186.52969997 206 191 C207.0725 191.70125 208.145 192.4025 209.25 193.125 C212.77560785 195.61699591 214.64024321 198.38170625 217 202 C218.65261839 203.02304948 220.31791365 204.02616054 222 205 C222.309375 205.639375 222.61875 206.27875 222.9375 206.9375 C224.5092835 209.98860915 227.17857474 211.13905994 230 213 C230.33 213.99 230.66 214.98 231 216 C231.56976563 215.84144531 232.13953125 215.68289062 232.7265625 215.51953125 C237.94838346 214.32622852 242.46619275 214.24756626 247.3125 216.625 C250.72279466 219.63874877 253.5905793 222.34900099 254.3125 227.0234375 C254.39990475 229.96242227 254.33238038 232.37434281 252.9375 235 C251.79916889 237.42843971 252.11794252 238.45663648 252.5625 241.0625 C253 245 253 245 252 247.0625 C248.93215413 248.50055275 246.28362734 247.51846748 243 247 C241.65753688 247.64808564 240.32474306 248.3164226 239 249 C234.48403789 249.86786347 230.58215538 249.98852449 226.60546875 247.50390625 C220.14253664 241.90269842 220.14253664 241.90269842 219.83203125 237.7578125 C219.82558594 236.88898438 219.81914062 236.02015625 219.8125 235.125 C219.79832031 234.26132812 219.78414062 233.39765625 219.76953125 232.5078125 C220.01140748 229.8758712 220.67016459 228.26019456 222 226 C221.236875 225.938125 220.47375 225.87625 219.6875 225.8125 C216.1075384 224.73018603 215.84349955 223.17081923 214 220 C212.00628175 218.65729179 210.0065438 217.32346506 208 216 C207.67 215.319375 207.34 214.63875 207 213.9375 C206.08119384 211.67369984 206.08119384 211.67369984 203.0625 210.625 C199.29755017 208.62727152 198.7940576 206.75121135 197 203 C194.69474491 202.03296503 193.47103926 201.85506484 191.0703125 202.59375 C190.42835938 202.8928125 189.78640625 203.191875 189.125 203.5 C185.33930035 205.02411284 182.98256638 205.32752213 179 204 C176.125 202.0625 176.125 202.0625 174 200 C174 199.34 174 198.68 174 198 C172.68 197.34 171.36 196.68 170 196 C170.34796631 195.04407959 170.69593262 194.08815918 171.05444336 193.10327148 C171.4479572 190.23057093 171.14701493 189.21699957 169.49783325 186.78274536 C167.12853311 184.20043206 164.66443523 181.76711615 162.12890625 179.34765625 C160.76172707 177.99745644 160.76172707 177.99745644 159.3669281 176.61997986 C156.94940892 174.23293277 154.50884182 171.87088413 152.06262207 169.51330566 C149.56834689 167.1010296 147.09670765 164.66580078 144.62304688 162.23242188 C139.77056898 157.46561146 134.89334723 152.72483676 130 148 C124.03229029 150.8160895 117.61063839 156.06138006 115.0703125 162.2734375 C114.90273437 162.98757812 114.73515625 163.70171875 114.5625 164.4375 C112.86652484 171.17328789 107.33377796 175.90095933 102 180 C99.68707024 180.8040003 97.66418309 181.0987822 95.2421875 181.37890625 C90.20391669 182.77452482 86.6282547 187.42808466 83 191 C81.44474669 192.40390316 79.8821754 193.79974062 78.3125 195.1875 C77.50425781 195.9196875 76.69601563 196.651875 75.86328125 197.40625 C74.29053978 198.8309435 72.71552721 200.2531949 71.13037109 201.6640625 C69.07681651 203.49428621 67.03783098 205.33979868 65 207.1875 C64.34040283 207.76975342 63.68080566 208.35200684 63.0012207 208.9519043 C59.18493489 212.44242778 57.3895237 214.90022978 56 220 C55.030625 220.86625 54.06125 221.7325 53.0625 222.625 C49.17773497 226.16004166 48.61186522 230.38500234 47.640625 235.390625 C47 238 47 238 45 240 C43.96875 240.2475 42.9375 240.495 41.875 240.75 C38.57328546 241.57034386 36.82133499 242.91959697 34.3125 245.1875 C31.65187291 247.34828325 30.4380577 247.98590548 26.96484375 248.09765625 C24.88033305 247.87223529 22.80104625 247.58774366 20.734375 247.234375 C17.68218788 246.97275896 16.59597078 247.51341844 14 249 C13.01 249 12.02 249 11 249 C11.50603992 246.83125748 11.99983813 245.00032373 13 243 C12.86360631 241.16594023 12.71601277 239.33270628 12.5625 237.5 C12.46766973 230.90139374 14.68612425 227.97574518 19.0703125 223.2578125 C20.96044871 221.04627661 21.5300677 219.81910211 22.1875 217.0625 C24 214 24 214 26.88671875 213.046875 C29.16952728 212.56628373 31.46659353 212.14813362 33.7734375 211.80078125 C37.43311271 210.89250835 39.28792108 209.5789405 42 207 C42.33 206.34 42.66 205.68 43 205 C43.67417969 205.1340625 44.34835938 205.268125 45.04296875 205.40625 C49.68997533 204.76782373 52.06660959 201.71656376 55.3125 198.5 C56.31325562 197.53694946 56.31325562 197.53694946 57.33422852 196.55444336 C61.35651544 192.66951957 65.31868326 188.72277185 69.234375 184.73046875 C71.14925978 182.85371221 73.14852107 181.11568386 75.1875 179.375 C81.71702707 173.82204963 81.71702707 173.82204963 84.8125 166.0625 C85.88995654 160.64413682 89.80083956 158.20633569 94 155 C95.2684375 153.824375 95.2684375 153.824375 96.5625 152.625 C99 151 99 151 102.25 150.74609375 C107.03324626 149.79442705 109.08288376 147.80895246 112.4375 144.4375 C112.97826172 143.91736328 113.51902344 143.39722656 114.07617188 142.86132812 C115.39690496 141.58734665 116.70029975 140.29543194 118 139 C116.69149364 136.11206015 115.29553519 134.04649825 113.05419922 131.8112793 C112.4595285 131.21353195 111.86485779 130.61578461 111.25216675 129.99992371 C110.6094986 129.36444107 109.96683044 128.72895844 109.3046875 128.07421875 C108.63841339 127.40840286 107.97213928 126.74258698 107.28567505 126.05659485 C105.87412939 124.64806818 104.46015619 123.24197067 103.04394531 121.83813477 C100.89858764 119.71088851 98.76119566 117.57589557 96.625 115.43945312 C95.24786382 114.06723851 93.8702736 112.69547937 92.4921875 111.32421875 C91.86166473 110.69480881 91.23114197 110.06539886 90.58151245 109.41691589 C87.53641555 106.40348097 84.45014561 103.49287386 81.19848633 100.70288086 C75.99398372 96.19939241 71.18255087 91.30710527 66.33203125 86.4296875 C65.32433301 85.42011824 64.31640936 84.41077393 63.30827332 83.40164185 C60.67604184 80.76562591 58.04682546 78.12662327 55.41827393 75.48693848 C52.74746861 72.80587996 50.07381536 70.12766486 47.40039062 67.44921875 C42.6959242 62.73523235 37.99393291 58.01879183 33.29377747 53.30050659 C31.63785833 51.63972957 29.97276372 49.98808373 28.30200195 48.34223938 C26.16582255 46.16872102 24.73280603 44.24460239 23.23046875 41.61328125 C22.72692871 40.74396973 22.22338867 39.8746582 21.70458984 38.97900391 C20.86081787 37.50439697 20.86081787 37.50439697 20 36 C18.9684186 34.2421494 17.93673292 32.48435843 16.90261841 30.72799683 C15.03336516 27.55127587 13.1737048 24.36894073 11.3125 21.1875 C10.17128546 19.23745177 9.02991039 17.28749794 7.88822937 15.33772278 C6.86044339 13.5823658 5.83316028 11.8267144 4.8059082 10.07104492 C3.65011364 8.10555353 2.47093578 6.15351212 1.26245117 4.2199707 C0 2 0 2 0 0 Z M221.1875 18.4375 C218.46970827 21.62119889 218.23761182 23.88139516 218 28 C220.475 28.495 220.475 28.495 223 29 C223.33 30.65 223.66 32.3 224 34 C226.24875747 34.86850174 226.24875747 34.86850174 229 35 C231.9315113 33.5714939 231.9315113 33.5714939 234 31 C234.7633049 27.09866382 234.15342949 25.30685897 232.375 21.75 C228.92115754 17.75081399 226.15724273 15.89740927 221.1875 18.4375 Z M243 29 C243 29.66 243 30.32 243 31 C243.66 30.67 244.32 30.34 245 30 C244.34 29.67 243.68 29.34 243 29 Z M238 44 C238.14349347 47.19954954 238.14349347 47.19954954 239 50 C240.65 50 242.3 50 244 50 C244 51.98 244 53.96 244 56 C247.69212837 56.3434538 249.60790131 56.221621 252.875 54.375 C255.19612525 52.14490235 255.19612525 52.14490235 255.75 49.125 C254.78942825 45.12261771 253.15162442 43.60503491 249.94140625 41.140625 C245.05105588 38.26742116 241.05307199 39.35933058 238 44 Z " fill="#000000" transform="translate(31,39)"/>
</svg>
