<?xml version="1.0" encoding="UTF-8"?>
<svg version="1.1" xmlns="http://www.w3.org/2000/svg" width="330" height="330">
<path d="M0 0 C1.02821869 0.00605759 1.02821869 0.00605759 2.07720947 0.01223755 C25.24207666 0.20390903 44.13215987 8.20586764 60.6875 24.4375 C79.66796392 44.51547373 83.55381622 67.86678942 82.98410034 94.45002747 C82.71676255 102.55816726 81.12861094 109.10250037 77.6875 116.4375 C77.21828125 117.52289063 76.7490625 118.60828125 76.265625 119.7265625 C73.21054517 126.34590213 69.39126211 131.89751352 64.6875 137.4375 C64.18992187 138.07945312 63.69234375 138.72140625 63.1796875 139.3828125 C36.49477879 172.50428211 -11.44025707 179.17856879 -50.55639648 185.86132812 C-51.51729691 186.02593536 -52.47819733 186.1905426 -53.46821594 186.36013794 C-55.2916164 186.67114103 -57.11556435 186.97895551 -58.94010925 187.28317261 C-63.25243243 187.93878384 -63.25243243 187.93878384 -67.3125 189.4375 C-57.32434042 197.44539837 -46.80353881 205.6919806 -35.3125 211.4375 C-35.62940181 214.48251301 -36.30909613 215.43426103 -38.5703125 217.5859375 C-39.98957031 218.68808594 -39.98957031 218.68808594 -41.4375 219.8125 C-42.44039062 220.61042969 -43.44328125 221.40835938 -44.4765625 222.23046875 C-46.04637898 223.45215789 -47.62037708 224.66872456 -49.2109375 225.86328125 C-54.12553514 229.73502524 -57.70663319 234.58707512 -61.40625 239.58862305 C-63.81555936 242.7916332 -65.65360154 244.82814766 -69.3125 246.4375 C-69.63412109 245.89448242 -69.95574219 245.35146484 -70.28710938 244.79199219 C-79.24082171 229.70096349 -88.45328062 215.23404921 -99.3125 201.4375 C-103.81517181 205.11315046 -107.67089581 208.87619462 -111.4296875 213.30078125 C-113.46889232 215.61498257 -115.61493458 217.77345677 -117.8125 219.9375 C-121.20518399 223.29006779 -124.40350684 226.73225682 -127.5078125 230.3515625 C-129.52901276 232.68775501 -131.60628839 234.96714851 -133.6875 237.25 C-137.65950989 241.64685984 -141.41162022 246.19036283 -145.13671875 250.796875 C-147.0969253 253.17586895 -149.11420468 255.4697974 -151.1875 257.75 C-154.95618871 261.94238744 -158.4321966 266.33968302 -161.88964844 270.7878418 C-165.50629955 275.43490429 -169.20701146 280.00651392 -172.9375 284.5625 C-177.75785135 290.46818216 -182.41946926 296.46128206 -186.94580078 302.59667969 C-188.63913351 304.87744582 -190.34864885 307.14572498 -192.05859375 309.4140625 C-192.72777832 310.30254883 -193.39696289 311.19103516 -194.08642578 312.10644531 C-195.41852546 313.87470793 -196.75149615 315.64231482 -198.08544922 317.40917969 C-201.29350267 321.67598285 -204.41370603 325.9542267 -207.3125 330.4375 C-209.63671875 330.24609375 -209.63671875 330.24609375 -212.3125 329.4375 C-213.83203125 327.28515625 -213.83203125 327.28515625 -215.125 324.5 C-222.50277578 310.1161248 -233.52020266 302.13307482 -247.3125 294.4375 C-246.9680855 291.63255737 -246.73058918 289.89717532 -244.80053711 287.77514648 C-244.1535083 287.29118408 -243.50647949 286.80722168 -242.83984375 286.30859375 C-242.11337646 285.75494141 -241.38690918 285.20128906 -240.63842773 284.63085938 C-239.85024658 284.05142578 -239.06206543 283.47199219 -238.25 282.875 C-237.43797119 282.26076172 -236.62594238 281.64652344 -235.78930664 281.01367188 C-233.30729638 279.14074833 -230.81221426 277.28670676 -228.3125 275.4375 C-225.62339423 273.43965115 -222.93605683 271.43944592 -220.25 269.4375 C-219.27945679 268.71626953 -219.27945679 268.71626953 -218.28930664 267.98046875 C-212.55565938 263.68927971 -207.03483059 259.16134664 -201.53149414 254.58032227 C-197.14299384 250.92987647 -192.70145587 247.36868257 -188.1875 243.875 C-177.59338704 235.63935829 -167.60420092 226.68661361 -157.71484375 217.625 C-155.64569448 215.7408966 -153.55396074 213.89295253 -151.4375 212.0625 C-140.45425198 202.50506917 -129.94587434 192.37963147 -119.3125 182.4375 C-122.94825602 178.58908655 -126.80106019 175.47339236 -131.1875 172.5 C-131.85716797 172.04197998 -132.52683594 171.58395996 -133.21679688 171.11206055 C-143.00641752 164.50932514 -153.18072142 158.49552586 -163.3125 152.4375 C-162.75239342 148.98134564 -161.80255157 147.65226597 -159.03125 145.5546875 C-158.35811768 145.03213379 -157.68498535 144.50958008 -156.99145508 143.97119141 C-156.2723999 143.42382324 -155.55334473 142.87645508 -154.8125 142.3125 C-145.90984424 135.31382345 -138.66717001 127.86701034 -132.3125 118.4375 C-129.72557854 118.79971044 -128.59286565 119.10409868 -126.88378906 121.13647461 C-126.45291992 121.86358643 -126.02205078 122.59069824 -125.578125 123.33984375 C-125.09005371 124.14365479 -124.60198242 124.94746582 -124.09912109 125.77563477 C-123.59203613 126.63342529 -123.08495117 127.49121582 -122.5625 128.375 C-117.74291212 136.281514 -112.89649813 143.85350187 -106.3125 150.4375 C-106.16335648 149.54025208 -106.16335648 149.54025208 -106.01119995 148.62487793 C-104.95137332 142.26094983 -103.87772563 135.89945274 -102.796875 129.5390625 C-102.39799142 127.18155827 -102.00235573 124.82350164 -101.61035156 122.46484375 C-95.0892401 83.27129175 -86.53787542 41.85876589 -52.703125 16.671875 C-36.58263605 5.24205464 -19.79986991 -0.1560283 0 0 Z M-51.3125 46.4375 C-79.38665431 79.75117917 -86.18979629 126.22980066 -85.3125 168.4375 C-40.67553272 167.74849292 7.36601194 160.5980868 41.4375 129.25 C53.75819047 116.34793394 58.32360558 100.15660767 58.09033203 82.64794922 C57.5339413 66.33029794 51.27835146 52.04575514 39.6875 40.4375 C12.61363249 17.59170367 -27.33530466 20.42349373 -51.3125 46.4375 Z " fill="#000000" transform="translate(247.3125,-0.4375)"/>
</svg>
