<?xml version="1.0" encoding="UTF-8"?>
<svg version="1.1" xmlns="http://www.w3.org/2000/svg" width="330" height="330">
<path d="M0 0 C2.62132735 0.81322629 5.0848335 1.67905238 7.625 2.6875 C58.2856635 21.49729065 139.2248174 23.71487073 189.73046875 1.37890625 C193.53643546 -0.22623861 195.91212518 -0.60561108 200 0 C203 2 203 2 205 5 C204.69134007 12.81003147 202.14194283 20.32045718 200.0625 27.8125 C192.70491529 54.36463814 194.09986322 75.22433715 199.625 102 C204.4284204 125.75462001 203.41240461 149.03543639 200.8125 173 C200.58490415 175.17036158 200.35778018 177.34077269 200.13110352 179.51123047 C199.44540312 186.01028964 198.72817862 192.50557752 198 199 C197.88918091 199.99310181 197.77836182 200.98620361 197.66418457 202.00939941 C197.04448368 207.54094065 196.40665735 213.06992002 195.74154663 218.59619141 C195.5428415 220.24885646 195.34678446 221.90184264 195.15371704 223.55517578 C192.87488215 242.89457209 188.92197984 261.08305593 177 277 C176.56300781 277.59039062 176.12601563 278.18078125 175.67578125 278.7890625 C171.21948971 284.38177223 165.59101011 288.60051664 160 293 C158.9355718 293.8533863 157.87178314 294.70757083 156.80859375 295.5625 C124.29882813 321.5703125 124.29882813 321.5703125 107.75 326.9375 C106.77522705 327.25557617 106.77522705 327.25557617 105.78076172 327.58007812 C100.33330985 329.20254664 94.92157356 330.11774043 89.48828125 328.0390625 C86.96151208 326.39688936 84.46415449 324.73546881 82 323 C80.58460938 322.03126953 80.58460938 322.03126953 79.140625 321.04296875 C58.8452067 306.33651716 43.15765348 287.5338707 31.40087891 265.58056641 C29.34328704 261.7902656 27.20790812 258.04545503 25.07421875 254.29760742 C22.85667022 250.40192267 20.65640473 246.49663481 18.45849609 242.58984375 C17.56590064 241.00486676 16.6709602 239.42120395 15.77197266 237.83984375 C11.60390213 230.48770154 7.98485039 222.99371068 4.75 215.1875 C4.43248779 214.44218018 4.11497559 213.69686035 3.7878418 212.92895508 C-1.64459053 199.33430389 -3.58276031 184.84829296 -4.58349609 170.34057617 C-4.7502868 167.93336075 -4.93803522 165.52846115 -5.12890625 163.12304688 C-6.26949368 148.17401658 -6.32470906 133.39760567 -5.1875 118.4375 C-5.10129395 117.24133057 -5.01508789 116.04516113 -4.92626953 114.81274414 C-4.34003774 107.13940691 -3.44398455 99.55616629 -2.375 91.9375 C0.81379306 68.12784515 -1.1612647 46.87188082 -7.73828125 23.890625 C-8.16246338 22.39366089 -8.16246338 22.39366089 -8.59521484 20.86645508 C-9.14212177 18.9646457 -9.70783418 17.06810712 -10.29541016 15.1784668 C-11.77103145 10.17334442 -12.60808854 6.84575292 -10 2 C-6.23547235 -0.5096851 -4.47526966 -0.346026 0 0 Z M-2 10 C-1.75765625 11.00675781 -1.5153125 12.01351563 -1.265625 13.05078125 C-0.35057922 16.87406919 0.54184491 20.70234904 1.42675781 24.53271484 C1.7961787 26.12273506 2.17017965 27.71170156 2.54980469 29.29931641 C5.68323597 42.45801553 7.10480411 55.51201801 8 69 C20.64383187 53.26286335 20.64383187 53.26286335 23.84765625 33.6875 C22.66502764 23.77451215 22.66502764 23.77451215 17 16 C11.33679438 13.0530473 4.40927437 10 -2 10 Z M184.0625 12.625 C183.34642578 12.86089844 182.63035156 13.09679687 181.89257812 13.33984375 C176.83883451 15.16649807 174.59416379 17.09490618 172 22 C168.26086986 30.97391234 168.72387456 42.12654455 172.3828125 51.046875 C175.9019389 57.47310582 180.3733875 63.3333556 185 69 C185.33 69 185.66 69 186 69 C186.03738281 67.75347656 186.07476562 66.50695312 186.11328125 65.22265625 C186.68778683 49.26118673 189.10101614 34.53353597 193.37402344 19.15405273 C194.24220914 16.01934394 195 13.27002109 195 10 C191.03891516 10 187.74103219 11.3011236 184.0625 12.625 Z M25 18 C25.2165625 18.83402344 25.433125 19.66804688 25.65625 20.52734375 C29.05470474 34.26276498 28.96401035 45.49642908 21.75 58.125 C18.95694499 62.65045622 15.96651683 67.00556539 12.7734375 71.2578125 C7.69031748 79.11761483 5.18847275 86.06535028 4.25 95.375 C4.13785156 96.32632813 4.02570313 97.27765625 3.91015625 98.2578125 C3.57570132 101.16953779 3.28173448 104.08273209 3 107 C2.90428711 107.93473145 2.80857422 108.86946289 2.70996094 109.83251953 C1.98035755 117.56134686 1.78155109 125.27039196 1.75976562 133.02783203 C1.74997847 135.12962257 1.7187864 137.23046486 1.6875 139.33203125 C1.61150572 148.93707184 2.35548513 157.57766901 7.6875 165.8125 C8.46673828 167.05386719 8.46673828 167.05386719 9.26171875 168.3203125 C10.48973004 170.21338158 11.72190587 172.10375228 12.95703125 173.9921875 C18.08420197 182.011357 21.84719351 190.06969261 25 199 C25.44214844 200.23234375 25.88429688 201.4646875 26.33984375 202.734375 C29.86932371 213.03377406 31.68095984 223.54440011 33.52050781 234.25146484 C36.98380588 254.10371011 42.09776956 270.74145439 56 286 C57.4750506 283.04989879 56.47230889 281.19233372 55.69921875 278.01171875 C53.76134735 269.33265781 52.70158129 260.65447301 51.8125 251.8125 C51.72595154 250.9640451 51.63940308 250.11559021 51.55023193 249.24142456 C50.15243694 235.17951566 49.61800894 221.19050141 49.625 207.0625 C49.62327789 206.17623932 49.62155579 205.28997864 49.61978149 204.37686157 C49.62847266 165.07952038 49.62847266 165.07952038 61.31640625 152.55859375 C64.12553501 149.95803139 65.40786556 148.9776553 69.3125 149.125 C73.08515724 148.38151484 73.08515724 148.38151484 74.68359375 145.65625 C80.34155774 134.70717256 82.4361071 124.23064248 83 112 C82.01 112.721875 81.02 113.44375 80 114.1875 C66.52350326 122.44653359 50.34654118 123.45650394 35 125 C36.25989409 133.93740191 37.92630766 142.85261532 42 151 C42.55512815 155.63213493 42.6364242 158.98172127 40.125 163 C37.39737017 165.56718101 36.4581425 165.94813481 32.6875 166.375 C29 166 29 166 26 164.125 C23.53360051 160.27125079 23.53973731 158.43441583 24.20703125 154.0078125 C25.34489133 149.69179152 27.07504553 145.6542453 28.83178711 141.56274414 C31.01328298 136.35999949 31.97355274 131.62004235 32 126 C27.48349806 126.53135317 24.57941844 128.23408575 21 131 C20.67 131.99 20.34 132.98 20 134 C19.01 134 18.02 134 17 134 C16.71382812 133.27167969 16.42765625 132.54335937 16.1328125 131.79296875 C15.44199653 130.08975006 14.71588605 128.39962783 13.9296875 126.73828125 C9.4461744 116.42620112 9.33519296 104.21260696 12.625 93.5 C19.07908153 77.21963518 31.64137748 61.91535382 47.56640625 54.29296875 C52.60466539 52.15253619 57.75453341 50.3801794 62.97265625 48.734375 C69.68087819 46.61546308 75.5282826 44.55034783 81.16796875 40.234375 C83.1287548 38.91324836 84.71418982 38.51262764 87 38 C87.0466293 48.67588946 87.08202304 59.35175413 87.10362434 70.02772522 C87.1139992 74.9866194 87.12804127 79.94544319 87.15087891 84.90429688 C87.17283452 89.70242999 87.18461579 94.50049601 87.18975449 99.29867554 C87.19340994 101.11641494 87.20054612 102.93415126 87.21146011 104.75186157 C87.31344633 122.46470971 86.82839825 140.10888314 78 156 C77.31292969 155.89300781 76.62585938 155.78601563 75.91796875 155.67578125 C75.01691406 155.55589844 74.11585938 155.43601563 73.1875 155.3125 C71.84751953 155.12107422 71.84751953 155.12107422 70.48046875 154.92578125 C67.92975791 154.75108118 67.92975791 154.75108118 66.17578125 156.48046875 C65.78777344 156.98191406 65.39976562 157.48335937 65 158 C65.54785156 158.10054687 66.09570312 158.20109375 66.66015625 158.3046875 C73.6868623 159.97281609 78.91516599 163.30835093 84.73266602 167.41943359 C90.08327853 171.18993783 93.98417053 173.76134265 100.85449219 172.66357422 C105.00573317 171.37965604 108.22679771 168.69366202 111.625 166.0625 C120.36695413 159.41270393 120.36695413 159.41270393 126 158 C124.77992056 155.3094472 124.77992056 155.3094472 123 153 C119.44103015 152.84182356 116.42255584 153.0645509 113 154 C104.84154304 142.75455933 103.89809728 128.79982235 103.79467773 115.26733398 C103.78477814 114.44671982 103.77487854 113.62610565 103.76467896 112.78062439 C103.73341194 110.10247557 103.70844615 107.42430909 103.68359375 104.74609375 C103.66299406 102.87565178 103.64199686 101.00521414 103.62062073 99.13478088 C103.56571117 94.23749327 103.51616608 89.34016583 103.46777344 84.44281006 C103.41732965 79.43514508 103.3617636 74.42753715 103.30664062 69.41992188 C103.19944028 59.61333012 103.09791239 49.80668859 103 40 C106.16612914 38.98415935 106.78046701 38.90518225 110.01171875 40.30078125 C111.24149584 40.96303456 112.46640436 41.63437276 113.6875 42.3125 C120.86294318 46.13120545 128.22539439 49.0993606 135.8125 52 C144.51114209 55.39833893 152.16536198 58.47174231 159 65 C159.91265625 65.85851562 160.8253125 66.71703125 161.765625 67.6015625 C175.32791792 81.03665111 185.667373 101.21809149 186.3125 120.4375 C186.18963927 127.1570368 184.74491161 133.38263259 181 139 C173.46813358 138.47213907 166.88107164 136.61577764 159.75 134.1875 C158.59282471 133.79731689 157.43564941 133.40713379 156.2434082 133.00512695 C147.10249741 129.85817575 138.12453656 126.3686726 129.1875 122.6875 C128.56653442 122.43342377 127.94556885 122.17934753 127.30578613 121.91757202 C121.1392945 119.38277539 115.42708181 116.8791196 110 113 C109.34 113 108.68 113 108 113 C107.67 112.34 107.34 111.68 107 111 C108.04127865 127.33723126 108.04127865 127.33723126 115.125 141.75 C117.64671046 143.72351253 120.02448859 145.14619507 122.8125 146.6875 C137.06236822 154.97871796 142.20886217 171.66379829 146.40136719 186.65185547 C147.85830618 192.3667165 148.50635116 198.1275021 149 204 C149.10957031 205.13953125 149.21914062 206.2790625 149.33203125 207.453125 C150.2819652 218.95365871 150.15952916 230.47073401 150 242 C149.99274902 242.95503418 149.98549805 243.91006836 149.97802734 244.89404297 C149.83309052 259.24278901 147.87264119 272.63625219 144.55664062 286.59423828 C143.98743165 289.05431953 143.48360425 291.52180423 143 294 C151.91091259 291.99504467 157.57793301 284.98637399 162.4609375 277.6953125 C166.29700864 270.97731989 169.12169182 263.20952737 169.1328125 255.421875 C169.13547119 254.06944702 169.13547119 254.06944702 169.13818359 252.68969727 C169.13383301 251.71959717 169.12948242 250.74949707 169.125 249.75 C169.1242749 248.23200806 169.1242749 248.23200806 169.12353516 246.68334961 C169.0951 240.31436505 168.87853371 233.97650502 168.53735352 227.6171875 C167.27475693 203.86138525 171.25263726 184.84021917 186.30688477 165.8515625 C197.06278621 152.12985684 198.07073759 139.84133409 196.23071289 122.98828125 C193.30361449 98.9125453 186.56942029 75.50061722 170.90234375 56.44921875 C165.14548182 49.03740678 164.25024158 38.14637124 165.35546875 29.0859375 C165.82485265 26.6931384 166.36703198 24.35412078 167 22 C167.33480528 20.66703552 167.66834909 19.33375281 168 18 C160.51887134 18.45406918 153.11321845 19.18823765 145.68359375 20.15625 C144.85477692 20.26388672 144.02596008 20.37152344 143.17202759 20.48242188 C139.74210106 20.9304604 136.31273926 21.38231936 132.88452148 21.84326172 C116.43609759 24.04480785 99.92501006 25.56673155 83.3125 24.8125 C81.80103394 24.74857056 81.80103394 24.74857056 80.2590332 24.68334961 C61.77813205 23.72995327 43.21183787 21.20578095 25 18 Z M108 45 C107.8918134 47.58445773 107.81262763 50.16437352 107.75 52.75 C107.71648437 53.47960938 107.68296875 54.20921875 107.6484375 54.9609375 C107.58625965 58.38071921 107.66746954 60.52663311 109.66015625 63.36328125 C116.06314675 67.84216776 124.06309427 69.77828838 131.53076172 71.82592773 C138.94877175 73.87016482 144.98366002 76.00903213 151 81 C151.65871094 81.50015625 152.31742188 82.0003125 152.99609375 82.515625 C167.92202276 94.50292081 174.9676736 112.14335795 180 130 C183.48063002 124.77905497 182.69123661 118.08729434 182 112 C178.73083406 97.47919014 169.76955679 84.02006006 160 73 C159.37609375 72.29359375 158.7521875 71.5871875 158.109375 70.859375 C148.42761153 60.54790334 136.90994449 56.15528893 123.6875 51.9453125 C118.01091846 50.11461495 113.04077563 48.20776631 108 45 Z M77.1875 48.0625 C71.82651337 50.83677151 66.29794069 52.56947281 60.5625 54.375 C42.54231424 60.2010044 29.01267267 71.18305769 20 88 C16.45940958 95.08118084 14.85916224 100.44734778 14.875 108.4375 C14.87242188 109.73558594 14.86984375 111.03367187 14.8671875 112.37109375 C14.97808173 115.40111541 15.28745334 118.06498638 16 121 C16.33 121 16.66 121 17 121 C17.14695312 120.12859375 17.29390625 119.2571875 17.4453125 118.359375 C20.01663853 104.70474711 25.01572169 94.82607672 35 85 C35.5878125 84.41347656 36.175625 83.82695313 36.78125 83.22265625 C44.2215851 76.32630791 52.90456576 73.6641702 62.5 71.0625 C74.04462852 68.63337553 74.04462852 68.63337553 83 62 C83.80811064 56.53305019 83.58546103 51.47731318 83 46 C80.46930533 46 79.40109651 46.82208826 77.1875 48.0625 Z M82 96 C81.319375 96.7425 80.63875 97.485 79.9375 98.25 C71.7829683 106.4275671 58.75780536 108.31641624 47.875 110.375 C39.48718802 112.10551814 31.09494812 114.82020981 26 122 C56.62845715 120.10740469 56.62845715 120.10740469 82 105.625 C83.26477346 102.30496967 83.20714086 99.52139465 83 96 C82.67 96 82.34 96 82 96 Z M108 96 C107.70053678 101.09087468 107.90016001 103.91728391 111 108 C113.30916718 109.62605072 115.4696419 110.98214909 117.9375 112.3125 C118.63770264 112.69712402 119.33790527 113.08174805 120.05932617 113.47802734 C127.90176835 117.6632965 136.0970223 120.90166034 144.40820312 124.02392578 C147.07594396 125.0286006 149.73329294 126.0579869 152.390625 127.08984375 C154.11406462 127.74875419 155.83800592 128.40635426 157.5625 129.0625 C158.36598877 129.37396973 159.16947754 129.68543945 159.99731445 130.00634766 C164.42571085 131.77751553 164.42571085 131.77751553 169 131 C154.59980819 120.06863411 139.44672725 112.34879905 122.75415039 105.44921875 C116.92732844 103.00618264 112.50148925 100.50148925 108 96 Z M59.4375 165.1875 C44.01889233 184.62835315 54.01806678 235.33563117 56.625 259.02734375 C58.83697099 281.2167922 58.83697099 281.2167922 69.44921875 299.91796875 C70.95820882 301.19073797 70.95820882 301.19073797 73 301 C73.495 301.99 73.495 301.99 74 303 C74.01458252 301.93152832 74.02916504 300.86305664 74.04418945 299.76220703 C74.10266075 295.75488711 74.17988541 291.74810078 74.26245117 287.74121094 C74.29547286 286.0150628 74.32357375 284.28881259 74.34643555 282.5625 C74.64642956 260.50336602 74.64642956 260.50336602 80.1875 253.0625 C85.7122117 249.01104475 91.10438258 247.27414553 98 248 C104.33362041 249.53340284 110.83365581 251.53619763 114.44140625 257.3046875 C118.19378082 264.51010193 119.1514637 270.7921068 119.53515625 278.80078125 C119.59962196 280.0553437 119.59962196 280.0553437 119.66539001 281.33525085 C119.80122438 283.99417166 119.93193331 286.65331584 120.0625 289.3125 C120.15395826 291.12045987 120.24575141 292.92840283 120.33789062 294.73632812 C120.56247336 299.15736564 120.78246118 303.57861052 121 308 C131.45882744 301.92573485 137.58607073 292.58174439 140.82202148 281.07763672 C142.70360842 273.19580189 143.69561902 265.51896843 144.1875 257.4375 C144.26645508 256.21442139 144.34541016 254.99134277 144.42675781 253.73120117 C147.36420303 210.80054789 147.36420303 210.80054789 134 171 C130.34823344 168.62415188 127.31470901 168.55365079 123 169 C118.25225066 171.71207934 114.94984401 174.97896167 111.4375 179.0625 C107.14123467 184.05151533 103.84063545 187.68437384 97.0625 188.4375 C92.6736381 188.21600603 90.35799025 186.93824147 87 184 C84.96733 181.55484258 83.02092157 179.05309014 81.07421875 176.5390625 C76.28873461 170.68112523 71.20355303 166.40118434 64 164 C61.07099113 163.69745837 61.07099113 163.69745837 59.4375 165.1875 Z M191 172 C174.5191725 195.45481977 169.97896721 217.01842354 174.5546875 245.375 C175.39587786 252.22258469 175.15172343 259.11344222 175 266 C186.21145837 255.30347291 186.45217689 238.84671712 187.5 224.25 C187.68079152 221.88869958 187.86519265 219.52769747 188.04972839 217.16668701 C188.17569022 215.55223093 188.3005331 213.93768717 188.42427063 212.32305908 C189.09388966 203.624277 189.88527636 194.93738944 190.6875 186.25 C190.8203898 184.80241595 190.95320452 183.354825 191.0859375 181.90722656 C191.38935573 178.60469852 191.69397752 175.30228756 192 172 C191.67 172 191.34 172 191 172 Z M4 176 C3.31960399 198.12547014 12.81444975 217.58300002 24 236 C25.22942898 238.06234365 26.45866047 240.12480507 27.6875 242.1875 C28.45667084 243.45934024 29.22666545 244.73068717 30 246 C31.32488402 241.62193773 30.45452969 237.94032433 29.5 233.5625 C29.31840332 232.72847656 29.13680664 231.89445312 28.94970703 231.03515625 C24.45967807 211.33034343 17.34864882 192.1942488 5 176 C4.67 176 4.34 176 4 176 Z M81 266 C78.43626759 273.13038077 78.35384635 280.70090875 78.18994141 288.20825195 C78.14667182 289.69357006 78.07831436 291.1783702 77.98486328 292.66137695 C77.33181027 301.97837294 77.33181027 301.97837294 81.59277344 309.96923828 C84.51721304 312.35851666 87.66348662 314.23186077 91 316 C91.72074707 316.40661865 92.44149414 316.8132373 93.18408203 317.23217773 C96.86376997 318.78805547 100.53412378 317.56856596 104.125 316.17578125 C109.40154564 313.72179955 111.96827022 311.63664276 114.125 306.125 C116.75364781 295.72179213 117.39950044 283.33400422 112.80859375 273.4296875 C109.64005911 268.19772021 105.87304779 264.03938888 100 262 C92.82325872 260.92970037 86.59011496 261.13903047 81 266 Z " fill="#000000" transform="translate(68,1)"/>
<path d="M0 0 C0.85142578 -0.02449219 1.70285156 -0.04898438 2.58007812 -0.07421875 C10.6651696 -0.11116509 17.50094136 2.25020365 23.5 7.8125 C24.42232422 8.64587891 24.42232422 8.64587891 25.36328125 9.49609375 C35.47341729 19.90931738 40.08561667 33.47534312 40.625 47.8125 C40.47425751 55.06587415 38.48280552 61.54031795 36.1875 68.375 C35.1975 68.375 34.2075 68.375 33.1875 68.375 C32.97996094 67.79492188 32.77242188 67.21484375 32.55859375 66.6171875 C28.2599554 55.71771119 19.66171711 51.04020345 9.1875 46.375 C-0.91443748 44.17345696 -9.86318874 45.28593454 -19.0625 50.0625 C-23.39828358 53.70849983 -27.00760517 57.96031551 -28.8125 63.375 C-29.4725 63.375 -30.1325 63.375 -30.8125 63.375 C-34.6758759 46.95565244 -36.54349022 28.2085819 -28.1875 12.75 C-21.44139759 2.78187852 -11.44105016 0.01708895 0 0 Z " fill="#000000" transform="translate(163.8125,193.625)"/>
</svg>
