<?xml version="1.0" encoding="UTF-8"?>
<svg version="1.1" xmlns="http://www.w3.org/2000/svg" width="330" height="330">
<path d="M0 0 C1.25642807 -0.00855011 1.25642807 -0.00855011 2.53823853 -0.01727295 C4.30819454 -0.02668029 6.07816774 -0.03323987 7.84814453 -0.03710938 C10.49675043 -0.04672145 13.14454753 -0.07774616 15.79296875 -0.109375 C30.43127863 -0.20148776 44.20692497 1.57189404 58.2265625 5.953125 C59.05889404 6.20916504 59.89122559 6.46520508 60.7487793 6.72900391 C68.83970315 9.29330664 76.53440852 12.49977343 84.1640625 16.203125 C84.78587402 16.49912598 85.40768555 16.79512695 86.04833984 17.10009766 C99.84495056 23.74184705 111.87743135 32.83570686 123.0625 43.25390625 C124.94333917 44.99840206 126.87024281 46.63780068 128.8515625 48.265625 C155.71825211 71.15486729 173.06083246 109.61397138 177.1640625 144.203125 C177.69050927 150.86126802 177.69940338 157.52812683 177.6640625 164.203125 C177.66230011 165.09743225 177.66053772 165.9917395 177.65872192 166.91314697 C177.46842047 210.38419648 160.716084 247.68401847 131.1640625 279.203125 C130.6990332 279.70215332 130.23400391 280.20118164 129.75488281 280.71533203 C102.83189305 309.37728211 63.56247257 329.25526018 23.87973022 330.5884552 C19.72355754 330.67032791 15.5707867 330.67153038 11.4140625 330.640625 C10.54142761 330.63758362 9.66879272 330.63454224 8.76971436 330.63140869 C-4.74532286 330.56191073 -17.75405995 329.88240306 -30.8359375 326.203125 C-31.6196875 325.98350098 -32.4034375 325.76387695 -33.2109375 325.53759766 C-38.51444246 323.99692074 -43.68541482 322.19260761 -48.8359375 320.203125 C-49.50786133 319.94692383 -50.17978516 319.69072266 -50.87207031 319.42675781 C-91.40863478 303.67461648 -123.12474448 270.33144703 -140.796875 231.078125 C-148.10245751 214.10679981 -152.94421051 195.43728931 -153.0390625 176.9296875 C-153.04476257 176.0476767 -153.05046265 175.16566589 -153.05633545 174.25692749 C-153.06574612 172.39281395 -153.07230371 170.52868406 -153.07617188 168.66455078 C-153.08578952 165.87110598 -153.11681371 163.07842609 -153.1484375 160.28515625 C-153.237495 145.37754282 -151.54990867 131.42164733 -147.0859375 117.140625 C-146.82917236 116.30756836 -146.57240723 115.47451172 -146.30786133 114.61621094 C-138.5106791 90.04981063 -125.16460464 68.13616011 -107.25585938 49.67431641 C-105.95783724 48.32942621 -104.6845671 46.9607592 -103.4140625 45.58984375 C-92.06138422 33.64667382 -78.42404624 24.68816166 -63.8359375 17.203125 C-63.22427734 16.88504883 -62.61261719 16.56697266 -61.98242188 16.23925781 C-43.10708045 6.53802165 -21.27714409 0.11511923 0 0 Z M-10.7109375 20.453125 C-11.472854 20.58952393 -12.23477051 20.72592285 -13.01977539 20.86645508 C-37.14049288 25.3367912 -61.26977524 34.79139795 -79.8359375 51.203125 C-80.65320313 51.91210938 -81.47046875 52.62109375 -82.3125 53.3515625 C-84.85800185 55.59759354 -87.35346644 57.88770598 -89.8359375 60.203125 C-90.64933594 60.95078125 -91.46273437 61.6984375 -92.30078125 62.46875 C-110.23705757 79.58330119 -122.22042524 102.20866649 -129.0859375 125.828125 C-129.45561646 127.09789185 -129.45561646 127.09789185 -129.83276367 128.39331055 C-133.16553791 140.36157587 -134.21736409 151.96090089 -134.1484375 164.328125 C-134.14561768 165.0584494 -134.14279785 165.7887738 -134.13989258 166.54122925 C-133.91531908 205.27856852 -119.2096692 240.94909459 -91.8984375 268.578125 C-63.91124606 296.04520631 -28.09049377 311.203125 11.1640625 311.203125 C11.1640625 214.843125 11.1640625 118.483125 11.1640625 19.203125 C0.06519125 19.14013534 0.06519125 19.14013534 -10.7109375 20.453125 Z " fill="#000000" transform="translate(152.8359375,-0.203125)"/>
</svg>
